<?xml version="1.0" encoding="iso-8859-1"?>
<!-- Uploaded to: SVG Repo, www.svgrepo.com, Generator: SVG Repo Mixer Tools -->
<svg height="30px" width="30px" version="1.1" id="Layer_1"
    xmlns="http://www.w3.org/2000/svg"
    xmlns:xlink="http://www.w3.org/1999/xlink" viewBox="0 0 512.049 512.049" xml:space="preserve">
    <circle style="fill:#83CF8F;" cx="256.024" cy="256" r="256"/>
    <polygon style="fill:#FFFFFF;" points="64.824,120.6 441.424,120.8 438.224,308.7 61.724,308.3 "/>
    <g>
        <path style="fill:#C6CBD6;" d="M89.024,133.7h6.7l-2.6,144.4h-6.7L89.024,133.7z M305.424,169h-3.6l-2,109.3h3.6L305.424,169z
		 M324.024,169h-14.7l-2,109.3h14.7L324.024,169z M335.724,169h-7.1l-2,109.3h7.1L335.724,169z M351.124,169h-4.6l-2,109.3h4.6
		L351.124,169z M399.124,169h3.6l-2,109.3h-3.6L399.124,169z M380.524,169h14.7l-2,109.3h-14.7L380.524,169z M368.824,169h7.1
		l-2,109.3h-7.1L368.824,169z M353.424,169h4.6l-2,109.3h-4.6L353.424,169z M239.824,133.7h2.5l-2.6,144.4h-2.5L239.824,133.7z
		 M260.324,133.7h19.6l-2.6,144.4h-19.6L260.324,133.7z M251.724,133.7h4.9l-2.6,144.4h-5L251.724,133.7z M213.924,133.7h19.6
		l-2.6,144.4h-19.6L213.924,133.7z M206.824,133.7h4.2l-2.6,144.4h-4.2L206.824,133.7z M196.724,133.7h4.9l-2.6,144.4h-4.9
		L196.724,133.7z M182.824,133.7h9.9l-2.7,144.4h-9.9L182.824,133.7z M158.724,133.7h19.6l-2.6,144.4h-19.6L158.724,133.7z
		 M147.124,133.7h4.2l-2.6,144.4h-4.2L147.124,133.7z M125.424,133.7h16.2l-2.6,144.4h-16.2L125.424,133.7z M102.724,133.7h6.7
		l-2.6,144.4h-6.7L102.724,133.7z"/>
        <path style="fill:#C6CBD6;" d="M84.524,292.3c0-3,0.4-5.1,1.3-6.3c0.9-1.2,2.2-1.8,4.1-1.8c0.9,0,1.6,0.1,2.1,0.4s1.1,0.7,1.3,1.1
		c0.4,0.4,0.7,0.9,0.8,1.3c0.3,0.5,0.4,1.1,0.5,1.6c0.3,1.2,0.4,2.4,0.4,3.7c0,2.9-0.4,5-1.2,6.3c-0.8,1.3-2.1,2-4.1,2
		c-1.1,0-2-0.3-2.6-0.7c-0.7-0.4-1.2-1.1-1.7-1.8c-0.3-0.5-0.5-1.4-0.8-2.4c-0.1-1.1-0.3-2.1-0.3-3.4L84.524,292.3z M88.124,292.3
		c0,2,0.1,3.4,0.4,4.2c0.3,0.8,0.7,1.1,1.3,1.1c0.4,0,0.7-0.1,0.9-0.5c0.3-0.3,0.5-0.8,0.5-1.4c0.1-0.7,0.1-1.7,0.1-3.2
		c0-2.1-0.1-3.6-0.4-4.2c-0.3-0.8-0.8-1.1-1.3-1.1c-0.7,0-1.1,0.4-1.3,1.1c-0.3,0.8-0.4,2.1-0.4,4.1h0.2V292.3z M106.124,289
		l-3.4-0.8c0.3-1.3,0.8-2.4,1.6-3c0.8-0.7,2-1.1,3.4-1.1c1.7,0,2.9,0.4,3.7,1.2c0.8,0.8,1.2,1.7,1.2,2.9c0,0.7-0.1,1.3-0.4,1.8
		s-0.8,1.1-1.3,1.4c0.5,0.1,0.9,0.4,1.2,0.5c0.4,0.3,0.8,0.8,1.1,1.3s0.4,1.2,0.4,1.8c0,0.9-0.3,1.8-0.7,2.6c-0.4,0.8-0.9,1.4-1.7,2
		c-0.8,0.4-1.7,0.7-2.9,0.7s-2.1-0.1-2.8-0.5c-0.7-0.4-1.2-0.8-1.7-1.4c-0.4-0.7-0.8-1.4-1.1-2.5l3.6-0.5c0.1,0.9,0.4,1.6,0.7,1.8
		c0.3,0.4,0.7,0.5,1.2,0.5s0.9-0.3,1.2-0.7c0.3-0.4,0.5-1.1,0.5-1.7c0-0.8-0.1-1.3-0.5-1.7c-0.3-0.4-0.8-0.7-1.3-0.7
		c-0.3,0-0.7,0.1-1.2,0.3l0.1-3.2c0.3,0,0.4,0,0.5,0c0.5,0,0.8-0.1,1.2-0.5c0.3-0.4,0.5-0.8,0.5-1.3s-0.1-0.9-0.4-1.2
		s-0.5-0.4-0.9-0.4s-0.8,0.1-1.1,0.5c-0.3,0.3-0.4,0.9-0.5,1.6L106.124,289z M126.924,297.3h-6.6v-3.7l6.6-9.6h3.2v9.7h1.6v3.4h-1.7
		v3h-3.2v-3v0.2H126.924z M126.924,293.9v-5l-3.4,5H126.924z M142.324,289l-3.4-0.8c0.3-1.3,0.8-2.4,1.6-3c0.8-0.7,2-1.1,3.4-1.1
		c1.7,0,2.9,0.4,3.7,1.2s1.2,1.7,1.2,2.9c0,0.7-0.1,1.3-0.5,1.8c-0.3,0.5-0.8,1.1-1.3,1.4c0.5,0.1,0.9,0.4,1.2,0.5
		c0.4,0.3,0.8,0.8,1.1,1.3s0.4,1.2,0.4,1.8c0,0.9-0.3,1.8-0.7,2.6s-0.9,1.4-1.7,2c-0.8,0.4-1.7,0.7-2.9,0.7s-2.1-0.1-2.8-0.5
		s-1.2-0.8-1.7-1.4c-0.4-0.7-0.8-1.4-1.1-2.5l3.6-0.5c0.1,0.9,0.4,1.6,0.7,1.8c0.3,0.4,0.7,0.5,1.2,0.5s0.9-0.3,1.2-0.7
		c0.3-0.4,0.5-1.1,0.5-1.7c0-0.8-0.1-1.3-0.5-1.7c-0.3-0.4-0.8-0.7-1.3-0.7c-0.3,0-0.7,0.1-1.2,0.3l0.1-3.2c0.3,0,0.4,0,0.5,0
		c0.5,0,0.8-0.1,1.2-0.5c0.3-0.4,0.5-0.8,0.5-1.3s-0.1-0.9-0.4-1.2s-0.5-0.4-0.9-0.4s-0.8,0.1-1.1,0.5c-0.3,0.3-0.4,0.9-0.5,1.6v0.3
		H142.324z M167.424,288l-3.6,0.5c-0.1-0.7-0.3-1.1-0.5-1.3s-0.5-0.4-0.8-0.4c-0.5,0-1.1,0.4-1.3,1.1c-0.3,0.5-0.4,1.6-0.5,3.3
		c0.4-0.5,0.9-0.9,1.3-1.2s0.9-0.4,1.6-0.4c1.2,0,2.1,0.5,2.9,1.6c0.8,1.1,1.2,2.4,1.2,3.8c0,1.1-0.3,2-0.7,2.9s-0.9,1.6-1.7,2
		c-0.7,0.4-1.6,0.7-2.8,0.7c-1.3,0-2.4-0.3-3.2-0.8s-1.4-1.4-1.8-2.6c-0.5-1.2-0.7-2.8-0.7-4.7c0-2.9,0.5-5,1.4-6.3s2.4-2,4.1-2
		c1.1,0,1.8,0.1,2.5,0.4s1.1,0.7,1.4,1.3c0.4,0.5,0.7,1.3,0.9,2.1H167.424z M160.824,295.1c0,0.9,0.1,1.6,0.5,2
		c0.4,0.5,0.8,0.8,1.3,0.8s0.9-0.3,1.2-0.7c0.3-0.4,0.5-1.1,0.5-2s-0.1-1.6-0.5-2.1s-0.8-0.7-1.2-0.7c-0.5,0-0.9,0.3-1.3,0.7
		S160.824,294.1,160.824,295.1z M185.724,300.3h-10.8c0.1-1.3,0.5-2.5,1.2-3.7s1.8-2.5,3.6-4.1c1.1-0.9,1.7-1.7,2-2.2
		s0.4-0.9,0.4-1.4s-0.1-0.9-0.4-1.2c-0.3-0.4-0.7-0.5-1.1-0.5s-0.8,0.1-1.2,0.5c-0.3,0.4-0.5,0.9-0.5,1.8l-3.6-0.4
		c0.1-1.3,0.4-2.2,0.8-2.9c0.4-0.7,0.9-1.2,1.6-1.6c0.7-0.4,1.6-0.5,2.9-0.5s2.2,0.1,2.9,0.5s1.3,0.9,1.7,1.6
		c0.4,0.8,0.7,1.6,0.7,2.5s-0.3,1.8-0.7,2.8c-0.5,0.9-1.3,1.8-2.5,2.9c-0.8,0.7-1.2,1.1-1.4,1.3s-0.5,0.5-0.9,0.9h5.7v3.6
		L185.724,300.3z M194.724,284.4h8.5v3.6h-5.8l-0.3,2.4c0.4-0.3,0.8-0.4,1.2-0.5s0.8-0.1,1.2-0.1c1.3,0,2.4,0.5,3.2,1.4
		s1.2,2.2,1.2,3.7c0,1.1-0.3,2-0.7,3c-0.4,0.9-1.1,1.7-1.7,2.2c-0.8,0.5-1.7,0.8-2.9,0.8c-0.8,0-1.6-0.1-2.2-0.3
		c-0.7-0.3-1.2-0.5-1.6-0.9s-0.8-0.8-1.1-1.3s-0.5-1.2-0.7-1.8l3.7-0.5c0.1,0.7,0.3,1.3,0.7,1.6c0.3,0.4,0.7,0.5,1.2,0.5
		s0.9-0.3,1.2-0.7c0.4-0.5,0.5-1.2,0.5-2.1s-0.1-1.6-0.5-2.1c-0.4-0.4-0.8-0.7-1.3-0.7c-0.4,0-0.7,0.1-1.1,0.3
		c-0.3,0.1-0.5,0.4-0.8,0.8l-3-0.5l1.2-8.5L194.724,284.4z M221.824,288l-3.6,0.5c-0.1-0.7-0.3-1.1-0.5-1.3s-0.5-0.4-0.8-0.4
		c-0.5,0-1.1,0.4-1.3,1.1c-0.3,0.5-0.4,1.6-0.5,3.3c0.4-0.5,0.9-0.9,1.3-1.2s0.9-0.4,1.6-0.4c1.2,0,2.1,0.5,2.9,1.6s1.2,2.4,1.2,3.8
		c0,1.1-0.3,2-0.7,2.9s-0.9,1.6-1.7,2c-0.7,0.4-1.6,0.7-2.8,0.7c-1.3,0-2.4-0.3-3.2-0.8s-1.4-1.4-1.8-2.6c-0.5-1.2-0.7-2.8-0.7-4.7
		c0-2.9,0.5-5,1.4-6.3s2.4-2,4.1-2c1.1,0,1.8,0.1,2.5,0.4s1.1,0.7,1.4,1.3c0.4,0.5,0.7,1.3,0.9,2.1H221.824z M215.224,295.1
		c0,0.9,0.1,1.6,0.5,2c0.4,0.5,0.8,0.8,1.3,0.8s0.9-0.3,1.2-0.7s0.5-1.1,0.5-2s-0.1-1.6-0.5-2.1s-0.8-0.7-1.2-0.7
		c-0.5,0-0.9,0.3-1.3,0.7C215.424,293.5,215.224,294.1,215.224,295.1z M239.024,289l-3.4-0.8c0.3-1.3,0.8-2.4,1.6-3
		c0.8-0.7,2-1.1,3.4-1.1c1.7,0,2.9,0.4,3.7,1.2s1.2,1.7,1.2,2.9c0,0.7-0.1,1.3-0.4,1.8s-0.8,1.1-1.3,1.4c0.5,0.1,0.9,0.4,1.2,0.5
		c0.4,0.3,0.8,0.8,1.1,1.3s0.4,1.2,0.4,1.8c0,0.9-0.1,1.8-0.7,2.6c-0.4,0.8-0.9,1.4-1.7,2c-0.8,0.4-1.7,0.7-2.9,0.7
		s-2.1-0.1-2.8-0.5s-1.2-0.8-1.7-1.4c-0.4-0.7-0.8-1.4-1.1-2.5l3.6-0.5c0.1,0.9,0.4,1.6,0.7,1.8c0.3,0.4,0.7,0.5,1.2,0.5
		s0.9-0.3,1.2-0.7s0.5-1.1,0.5-1.7c0-0.8-0.1-1.3-0.5-1.7c-0.3-0.4-0.8-0.7-1.3-0.7c-0.3,0-0.7,0.1-1.2,0.3l0.1-3.2
		c0.3,0,0.4,0,0.5,0c0.5,0,0.9-0.1,1.2-0.5s0.5-0.8,0.5-1.3s-0.1-0.9-0.4-1.2s-0.5-0.4-0.9-0.4s-0.8,0.1-1.1,0.5
		c-0.3,0.3-0.4,0.9-0.5,1.6L239.024,289z M264.224,288l-3.6,0.5c-0.1-0.7-0.3-1.1-0.5-1.3s-0.5-0.4-0.8-0.4c-0.5,0-1.1,0.4-1.3,1.1
		c-0.3,0.5-0.4,1.6-0.5,3.3c0.4-0.5,0.9-0.9,1.3-1.2c0.4-0.3,0.9-0.4,1.6-0.4c1.2,0,2.1,0.5,2.9,1.6s1.2,2.4,1.2,3.8
		c0,1.1-0.3,2-0.7,2.9c-0.4,0.9-0.9,1.6-1.7,2c-0.7,0.4-1.6,0.7-2.6,0.7c-1.3,0-2.4-0.3-3.2-0.8c-0.8-0.5-1.4-1.4-1.8-2.6
		c-0.5-1.2-0.7-2.8-0.7-4.7c0-2.9,0.5-5,1.4-6.3c0.9-1.3,2.4-2,4.1-2c1.1,0,1.8,0.1,2.5,0.4s1.1,0.7,1.4,1.3
		c0.4,0.5,0.7,1.3,0.9,2.1l0,0H264.224z M257.624,295.1c0,0.9,0.1,1.6,0.5,2c0.4,0.5,0.8,0.8,1.3,0.8s0.9-0.3,1.2-0.7s0.5-1.1,0.5-2
		s-0.1-1.6-0.5-2.1s-0.8-0.7-1.2-0.7c-0.5,0-0.9,0.3-1.3,0.7S257.624,294.1,257.624,295.1z M271.924,284.4h10.5v3
		c-0.9,1.1-1.7,2.1-2.2,3.3c-0.8,1.4-1.3,3-1.7,4.7c-0.4,1.3-0.5,3-0.7,4.9h-3.6c0.3-2.6,0.8-4.7,1.3-6.6c0.7-1.7,1.6-3.7,2.9-5.7
		h-6.4v-3.7h-0.1V284.4z M298.224,284.1v16.2h-3.7v-10.7c-0.5,0.5-1.2,1.1-1.7,1.3c-0.5,0.4-1.2,0.7-2.1,0.9v-3.6
		c1.2-0.5,2.2-1.1,2.9-1.7c0.7-0.7,1.2-1.6,1.6-2.5h3V284.1z M318.724,300.3h-10.8c0.1-1.3,0.5-2.5,1.2-3.7s1.8-2.5,3.6-4.1
		c1.1-0.9,1.7-1.7,2-2.2s0.4-0.9,0.4-1.4s-0.1-0.9-0.4-1.2c-0.3-0.4-0.7-0.5-1.1-0.5c-0.5,0-0.8,0.1-1.2,0.5
		c-0.3,0.4-0.5,0.9-0.5,1.8l-3.6-0.4c0.1-1.3,0.4-2.2,0.8-2.9c0.4-0.7,0.9-1.2,1.6-1.6s1.6-0.5,2.9-0.5s2.2,0.1,3,0.5
		c0.7,0.4,1.3,0.9,1.7,1.6c0.4,0.8,0.7,1.6,0.7,2.5s-0.3,1.8-0.7,2.8c-0.5,0.9-1.3,1.8-2.5,2.9c-0.8,0.7-1.2,1.1-1.4,1.3
		s-0.5,0.5-0.9,0.9h5.7v3.6L318.724,300.3z M327.824,284.4h8.5v3.6h-5.8l-0.3,2.4c0.4-0.3,0.8-0.4,1.2-0.5c0.4-0.1,0.8-0.1,1.2-0.1
		c1.3,0,2.4,0.5,3.2,1.4s1.2,2.2,1.2,3.7c0,1.1-0.3,2-0.7,3c-0.4,0.9-1.1,1.7-1.7,2.2c-0.8,0.5-1.7,0.8-2.9,0.8
		c-0.8,0-1.6-0.1-2.2-0.3c-0.7-0.3-1.2-0.5-1.6-0.9s-0.8-0.8-1.1-1.3s-0.5-1.2-0.7-1.8l3.7-0.5c0.1,0.7,0.3,1.3,0.7,1.6
		c0.3,0.4,0.7,0.5,1.2,0.5s0.9-0.3,1.2-0.7c0.4-0.5,0.5-1.2,0.5-2.1s-0.1-1.6-0.5-2.1c-0.4-0.4-0.8-0.7-1.3-0.7
		c-0.4,0-0.7,0.1-1.1,0.3c-0.3,0.1-0.5,0.4-0.8,0.8l-3-0.5l1.2-8.5L327.824,284.4z M350.724,297.3h-6.6v-3.7l6.6-9.6h3.2v9.7h1.6
		v3.4h-1.6v3h-3.2v-3V297.3z M350.724,293.9v-5l-3.4,5H350.724z M379.124,288l-3.6,0.5c-0.1-0.7-0.3-1.1-0.5-1.3s-0.5-0.4-0.8-0.4
		c-0.5,0-1.1,0.4-1.3,1.1c-0.3,0.5-0.4,1.6-0.5,3.3c0.4-0.5,0.9-0.9,1.3-1.2c0.4-0.3,0.9-0.4,1.6-0.4c1.2,0,2.1,0.5,2.9,1.6
		s1.2,2.4,1.2,3.8c0,1.1-0.3,2-0.7,2.9c-0.4,0.9-0.9,1.6-1.7,2c-0.7,0.4-1.6,0.7-2.8,0.7c-1.3,0-2.4-0.3-3.2-0.8s-1.4-1.4-1.8-2.6
		c-0.5-1.2-0.7-2.8-0.7-4.7c0-2.9,0.5-5,1.4-6.3s2.4-2,4.1-2c1.1,0,1.8,0.1,2.5,0.4s1.1,0.7,1.4,1.3c0.4,0.5,0.7,1.3,0.9,2.1
		H379.124z M372.524,295.1c0,0.9,0.1,1.6,0.5,2c0.4,0.5,0.8,0.8,1.3,0.8s0.9-0.3,1.2-0.7s0.5-1.1,0.5-2s-0.1-1.6-0.5-2.1
		s-0.8-0.7-1.2-0.7c-0.5,0-0.9,0.3-1.3,0.7S372.524,294.1,372.524,295.1z M390.424,289l-3.4-0.8c0.3-1.3,0.8-2.4,1.6-3
		c0.8-0.7,2-1.1,3.4-1.1c1.7,0,2.9,0.4,3.7,1.2s1.2,1.7,1.2,2.9c0,0.7-0.1,1.3-0.4,1.8s-0.8,1.1-1.3,1.4c0.5,0.1,0.9,0.4,1.2,0.5
		c0.4,0.3,0.8,0.8,1.1,1.3s0.4,1.2,0.4,1.8c0,0.9-0.3,1.8-0.7,2.6c-0.4,0.8-0.9,1.4-1.7,2c-0.8,0.4-1.7,0.7-2.9,0.7
		s-2.1-0.1-2.8-0.5c-0.7-0.4-1.2-0.8-1.7-1.4c-0.4-0.7-0.8-1.4-1.1-2.5l3.6-0.5c0.1,0.9,0.4,1.6,0.7,1.8c0.3,0.4,0.7,0.5,1.2,0.5
		s0.9-0.3,1.2-0.7s0.5-1.1,0.5-1.7c0-0.8-0.1-1.3-0.5-1.7c-0.3-0.4-0.8-0.7-1.3-0.7c-0.3,0-0.7,0.1-1.2,0.3l0.1-3.2
		c0.3,0,0.4,0,0.5,0c0.5,0,0.9-0.1,1.2-0.5c0.3-0.4,0.5-0.8,0.5-1.3s-0.1-0.9-0.4-1.2s-0.5-0.4-0.9-0.4s-0.8,0.1-1.1,0.5
		c-0.3,0.3-0.4,0.9-0.5,1.6L390.424,289z"/>
    </g>
    <path style="fill:#FF7069;" d="M317.424,317.1l-15.1,8.7c-8.5,5-11.6,15.9-6.6,24.6l90.1,156.5c2.9,4.9,9.2,6.6,14.1,3.8l28.4-16.3
	c4.9-2.8,6.6-9.2,3.8-14.1l-90.1-156.5c-5-8.5-15.9-11.6-24.6-6.6V317.1z"/>
    <polygon style="fill:#596366;" points="314.024,306.8 295.124,317.7 302.324,330.3 321.224,319.4 "/>
    <path style="fill:#ECF0F1;" d="M317.424,317.1l-15.1,8.7c-8.5,5-11.6,15.9-6.6,24.6l13.4,23.4l46.3-26.6l-13.4-23.4
	c-5-8.5-16-11.6-24.6-6.6V317.1z"/>
    <path style="fill:#6C7678;" d="M352.624,147.5c-34.1-59.3-109.9-79.7-169.2-45.5s-79.7,110-45.5,169.3s109.9,79.7,169.2,45.5
	S386.824,206.8,352.624,147.5z M296.224,297.9c-48.9,28.1-111.4,11.3-139.5-37.6s-11.3-111.4,37.6-139.5s111.4-11.3,139.5,37.6
	S345.124,269.8,296.224,297.9z"/>
    <g>
        <path style="fill:#FFFFFF;" d="M247.224,110.6c-5.5,0-10.8,0.5-16,1.3c0.5,0,1.2,0,1.7,0c56.5,0,102.4,45.9,102.4,102.4
		c0,28.4-11.6,54.2-30.2,72.7c24.2-17.8,40-46.4,40-78.8c0-53.9-43.7-97.7-97.7-97.7h-0.2V110.6z"/>
        <path style="fill:#FFFFFF;" d="M243.824,309c5.5,0,10.8-0.5,16-1.3c-0.5,0-1.2,0-1.7,0c-56.5,0-102.4-45.9-102.4-102.4
		c0-28.4,11.6-54.2,30.2-72.7c-24.2,17.8-40,46.4-40,78.8c0,53.9,43.7,97.7,97.7,97.7h0.2V309z"/>
    </g>
</svg>