<?xml version="1.0" ?><!-- Uploaded to: SVG Repo, www.svgrepo.com, Generator: SVG Repo Mixer Tools -->
<svg width="30px" height="30px" viewBox="0 0 64 64" data-name="Layer 1" id="Layer_1"
    xmlns="http://www.w3.org/2000/svg">
    <defs>
        <style>.cls-1{fill:#ffb300;}.cls-2{fill:#0074ff;}</style>
    </defs>
    <title/>
    <path class="cls-1" d="M28.46,42.29A2,2,0,0,1,27,41.71l-9.5-9.5a2,2,0,0,1,2.83-2.83l8.09,8.09L43.63,22.29a2,2,0,1,1,2.83,2.83L29.87,41.71A2,2,0,0,1,28.46,42.29Z"/>
    <path class="cls-2" d="M32,60A28,28,0,1,1,60,30.47a2,2,0,0,1-1.88,2.11A2,2,0,0,1,56,30.69,24,24,0,1,0,39.64,54.75,23.86,23.86,0,0,0,53.58,42.51a2,2,0,1,1,3.59,1.75A27.78,27.78,0,0,1,40.91,58.55,28.14,28.14,0,0,1,32,60Z"/>
</svg>