<?xml version="1.0" encoding="iso-8859-1"?>
<!-- Uploaded to: SVG Repo, www.svgrepo.com, Generator: SVG Repo Mixer Tools -->
<svg height="30px" width="30px" version="1.1" id="Layer_1"
    xmlns="http://www.w3.org/2000/svg"
    xmlns:xlink="http://www.w3.org/1999/xlink" viewBox="0 0 512 512" xml:space="preserve">
    <circle style="fill:#FF7069;" cx="256" cy="256" r="256"/>
    <path style="fill:#FFFFFF;" d="M261.6,116.5L261.6,116.5c-3.9,3.8-4,10-0.3,13.9L405.5,280c3.8,3.9,10,4,13.9,0.3l0,0
	c3.9-3.8,4-10,0.3-13.9L275.5,116.7C271.8,112.8,265.5,112.7,261.6,116.5L261.6,116.5z"/>
    <path style="fill:#FFE356;" d="M426.6,282.4c-56.9,0-113.8,0-170.6,0s-113.7,0-170.5,0c-9.6,0-15.7,7.9-13.5,17.5
	c7.4,32.4,14.8,64.9,22.2,97.3c7.4,32.4,14.8,64.9,22.2,97.3c2.2,9.6,9.7,17.5,16.6,17.5c41,0,82,0,122.9,0c41,0,82,0,123,0
	c6.9,0,14.4-7.8,16.6-17.5c7.4-32.4,14.8-64.9,22.2-97.3c7.4-32.4,14.8-64.9,22.3-97.3C442.3,290.2,436.2,282.4,426.6,282.4z
	 M152.6,478.1c-0.3,0-0.6,0-0.8,0c-3.2,0-6.5-3.4-7.2-7.6c-4.4-25.1-8.8-50.3-13.2-75.4c-4.4-25.1-8.9-50.3-13.2-75.5
	c-0.7-4.2,2-7.7,6.1-7.7c0.3,0,0.7,0,1.1,0c4.1,0,7.9,3.5,8.5,7.7c3.9,25.2,7.8,50.3,11.8,75.5c3.9,25.1,7.8,50.3,11.7,75.4
	C157.9,474.7,155.8,478.1,152.6,478.1z M194.7,475.9c-0.3,0-0.6,0-0.9,0c-3.2,0-6.2-3.4-6.7-7.6c-2.7-25.1-5.4-50.3-8.1-75.4
	c-2.7-25.1-5.5-50.3-8.2-75.5c-0.5-4.2,2.6-7.6,6.6-7.6c0.4,0,0.7,0,1.1,0c4,0,7.7,3.4,8,7.6c2.2,25.2,4.5,50.3,6.7,75.5
	c2.2,25.1,4.4,50.3,6.6,75.4C200.3,472.5,197.9,475.9,194.7,475.9z M398.8,320.6c-3.9,21.6-7.9,43.2-11.8,64.8
	c4.7,10.3,7.3,21.8,7.3,33.9c0,45.3-36.7,82-82,82c-29.3,0-55-15.4-69.5-38.5l0.1,5.5c0.1,4.2-2.5,7.6-5.7,7.6c-0.3,0-0.6,0-0.8,0
	c-3.2,0-6-3.4-6.2-7.6c-1-25.1-2-50.3-3-75.4s-2-50.3-3-75.5c-0.2-4.2,3-7.6,7.1-7.6c0.3,0,0.7,0,1.1,0c4.1,0,7.5,3.4,7.6,7.6
	c0.4,20.5,0.8,41,1.3,61.4c8.2-14.3,20.5-25.9,35.4-33.2c0.3-9.4,0.5-18.8,0.8-28.3c0.1-4.2,3.5-7.6,7.6-7.6c0.3,0,0.7,0,1.1,0
	c4.1,0,7.2,3.4,7,7.6c-0.3,7.5-0.7,15.1-1,22.6c6.5-1.7,13.4-2.6,20.4-2.6c5.5,0,10.9,0.5,16.1,1.6c0.7-7.2,1.4-14.4,2-21.6
	c0.4-4.2,4.1-7.6,8.1-7.6c0.3,0,0.7,0,1.1,0c4.1,0,7,3.4,6.5,7.6c-1,8.7-2,17.4-3,26.1c12.7,5.2,23.8,13.4,32.4,23.8
	c2.5-15.5,5-31.1,7.5-46.6c0.7-4.2,4.5-7.6,8.6-7.6l0,0c0.3,0,0.7,0,1,0C396.8,313,399.6,316.4,398.8,320.6z"/>
    <path style="fill:#FFFFFF;" d="M254.3,116.5L254.3,116.5c3.9,3.8,4,10,0.3,13.9L110.4,279.9c-3.8,3.9-10,4-13.9,0.3l0,0
	c-3.9-3.8-4-10-0.3-13.9l144.2-149.5C244.2,112.8,250.4,112.7,254.3,116.5L254.3,116.5z"/>
    <path style="fill:#FCD34E;" d="M81,295l353.7-1.1l-21.3,38.8h-16.9l2.2-12.1c0.8-4.2-2-7.6-6-7.6c-0.4,0-0.7,0-1,0
	c-4.1,0-7.9,3.4-8.6,7.6l-2,12.1h-36.7l1.8-15.3c0.5-4.2-2.4-7.6-6.5-7.6c-0.3,0-0.7,0-1.1,0c-4.1,0-7.7,3.4-8.1,7.6
	c-0.5,5.1-1,10.2-1.4,15.3h-36.8l0.7-15.3c0.2-4.2-2.9-7.6-7-7.6c-0.4,0-0.8,0-1.1,0c-4.1,0-7.5,3.4-7.6,7.6l-0.4,15.3h-36.7
	l-0.3-15.3c-0.1-4.2-3.5-7.6-7.6-7.6c-0.4,0-0.8,0-1.1,0c-4.1,0-7.2,3.4-7.1,7.6l0.6,15.3H188l-1.4-15.3c-0.4-4.2-4-7.6-8-7.6
	c-0.4,0-0.7,0-1.1,0c-4,0-7,3.5-6.6,7.6l1.7,15.3h-36.8l-2-13.1c-0.7-4.2-4.5-7.7-8.5-7.7c-0.3,0-0.7,0-1.1,0
	c-4.1,0-6.8,3.5-6.1,7.7l2.3,13.1H98.5L81,295L81,295z"/>
    <path style="fill:#FFE356;" d="M60.8,262.7h390.4c11.1,0,20.2,9.1,20.2,20.2l0,0c0,11.1-9.1,20.2-20.2,20.2H60.8
	c-11.1,0-20.2-9.1-20.2-20.2l0,0C40.6,271.8,49.7,262.7,60.8,262.7z"/>
    <path style="fill:#FFFFFF;" d="M311.1,337.4c46.1,0,83.5,37.4,83.5,83.5s-37.4,83.5-83.5,83.5s-83.5-37.4-83.5-83.5
	S265,337.4,311.1,337.4z"/>
    <path style="fill:#83CF8F;" d="M311.1,351.2c38.5,0,69.7,31.2,69.7,69.7s-31.2,69.7-69.7,69.7s-69.7-31.2-69.7-69.7
	S272.6,351.2,311.1,351.2z"/>
    <g>
        <path style="fill:#FFFFFF;" d="M262.4,431v-20.4c61.8,0,35.6,0,97.5,0V431C298,431,324.1,431,262.4,431z"/>
        <path style="fill:#FFFFFF;" d="M321.3,469.6H301c0-61.8,0-35.6,0-97.5h20.4C321.3,434,321.3,407.9,321.3,469.6z"/>
    </g>
</svg>