<svg version="1.1" id="Layer_1"
    xmlns="http://www.w3.org/2000/svg"
    xmlns:xlink="http://www.w3.org/1999/xlink" viewBox="0 0 451.296 451.296" xml:space="preserve">
    <circle style="fill:#E05B49;" cx="225.648" cy="225.638" r="225.638"/>
    <path style="opacity:0.1;enable-background:new    ;" d="M449.548,253.372L299.663,103.487H151.633v5.171v59.509h-4.981h-13.128
	v43.395h-29.589c-4.181,0-7.57,3.389-7.57,7.569v27.607v6.42v87.062c0,2.05,0.822,3.902,2.145,5.265l-0.002,0.001l0.019,0.019
	c0.04,0.041,0.081,0.082,0.123,0.122l104.55,104.55c7.386,0.73,14.871,1.118,22.449,1.118
	C340.879,451.296,435.869,364.905,449.548,253.372z"/>
    <g>
        <polygon style="fill:#3A556A;" points="133.524,168.167 133.524,211.562 151.633,211.562 146.652,168.167 	"/>
        <polygon style="fill:#3A556A;" points="304.644,168.167 299.662,211.562 317.772,211.562 317.772,168.167 	"/>
    </g>
    <polygon style="fill:#2F4859;" points="146.652,168.167 151.633,211.562 299.662,211.562 304.644,168.167 "/>
    <rect x="151.633" y="103.475" style="fill:#D5D6DB;" width="148.029" height="102.912"/>
    <path style="fill:#64798A;" d="M347.362,211.562H103.935c-4.181,0-7.57,3.389-7.57,7.569V340.22c0,4.181,3.389,7.569,7.57,7.569
	h243.427c4.18,0,7.569-3.389,7.569-7.569V219.131C354.931,214.951,351.543,211.562,347.362,211.562z"/>
    <g>
        <rect x="96.363" y="246.733" style="fill:#3A556A;" width="258.56" height="6.42"/>
        <rect x="133.539" y="297.114" style="fill:#3A556A;" width="184.248" height="50.673"/>
    </g>
    <rect x="140.298" y="315.238" style="fill:#64798A;" width="170.65" height="32.558"/>
    <circle style="fill:#FCD462;" cx="314.838" cy="231.68" r="5.294"/>
    <circle style="fill:#E56353;" cx="334.294" cy="231.68" r="5.294"/>
    <g>
        <rect x="208.726" y="267.776" style="fill:#FFFFFF;" width="33.843" height="9.431"/>
        <rect x="151.633" y="108.646" style="fill:#FFFFFF;" width="148.029" height="102.912"/>
        <polygon style="fill:#FFFFFF;" points="272.577,108.658 151.633,108.658 151.633,211.562 299.662,211.562 299.662,135.744 	"/>
    </g>
    <polygon style="fill:#EBF0F3;" points="272.577,135.744 299.662,135.744 272.577,108.658 "/>
</svg>