<svg version="1.1" id="Layer_1"
    xmlns="http://www.w3.org/2000/svg"
    xmlns:xlink="http://www.w3.org/1999/xlink" viewBox="0 0 451.277 451.277" xml:space="preserve" width="20px" height="20px" fill="#000000">
    <g id="SVGRepo_bgCarrier" stroke-width="0"></g>
    <g id="SVGRepo_tracerCarrier" stroke-linecap="round" stroke-linejoin="round"></g>
    <g id="SVGRepo_iconCarrier">
        <circle style="fill:#24838a;" cx="225.638" cy="225.638" r="225.638"></circle>
        <path style="opacity:0.1;enable-background:new ;" d="M352.857,183.414c-0.799-1.222-1.881-2.257-3.056-3.055l-28.254-28.207 l-0.376-0.424c-0.235-0.283-0.47-0.517-0.752-0.752c-2.069-1.928-4.889-3.104-7.945-3.104H198.046l-19.51-19.51l0,0.001 c-2.164-2.477-5.338-4.091-8.885-4.091h-61.492c-6.535,0-11.8,5.265-11.8,11.8v179.163c0,3.667,1.739,7.052,4.513,9.214 L227.7,451.244c106.335-0.957,195.049-75.443,217.849-175.091l-92.598-92.599L352.857,183.414z"></path>
        <path style="fill:#F6C358;" d="M181.452,136.062L181.452,136.062c0-6.514-5.281-11.796-11.796-11.796h-61.505 c-6.514,0-11.796,5.281-11.796,11.796v179.152c0,6.514,5.281,11.796,11.796,11.796h204.314c6.514,0,11.796-5.281,11.796-11.796 V159.654c0-6.514-5.281-11.796-11.796-11.796H193.248C186.733,147.858,181.452,142.577,181.452,136.062z"></path>
        <path style="fill:#FCD462;" d="M343.12,178.273H139.536c-5.41,0-10.126,3.68-11.442,8.927L96.715,312.345 c-1.867,7.447,3.764,14.665,11.441,14.665h203.584c5.41,0,10.126-3.68,11.442-8.927l31.379-125.146 C356.429,185.491,350.797,178.273,343.12,178.273z"></path>
        <path style="fill:#FFFFFF;" d="M197.102,269.816h-65.035c-2.242,0-4.059,1.909-4.059,4.262v34.417c0,2.354,1.817,4.262,4.059,4.262 h65.035c2.242,0,4.06-1.908,4.06-4.262v-34.417C201.162,271.724,199.344,269.816,197.102,269.816z"></path>
        <g>
            <rect x="135.491" y="276.357" style="fill:#EBF0F3;" width="58.184" height="4.7"></rect>
            <rect x="135.491" y="288.922" style="fill:#EBF0F3;" width="58.184" height="4.7"></rect>
            <rect x="135.491" y="301.512" style="fill:#EBF0F3;" width="58.184" height="4.7"></rect>
        </g>
    </g>
</svg>