<svg version="1.1" id="Layer_1"
    xmlns="http://www.w3.org/2000/svg"
    xmlns:xlink="http://www.w3.org/1999/xlink" viewBox="0 0 512 512" xml:space="preserve">
    <g>
        <rect x="30.118" y="30.118" style="fill:#CDCDD0;" width="60.235" height="60.235"/>
        <rect x="436.706" y="421.647" style="fill:#CDCDD0;" width="60.235" height="60.235"/>
        <rect x="271.059" y="421.647" style="fill:#CDCDD0;" width="135.529" height="60.235"/>
        <rect x="105.412" y="421.647" style="fill:#CDCDD0;" width="135.529" height="60.235"/>
        <rect x="271.059" y="30.118" style="fill:#CDCDD0;" width="135.529" height="60.235"/>
        <rect x="105.412" y="30.118" style="fill:#CDCDD0;" width="135.529" height="60.235"/>
        <rect x="30.118" y="271.059" style="fill:#CDCDD0;" width="60.235" height="135.529"/>
        <rect x="30.118" y="105.412" style="fill:#CDCDD0;" width="60.235" height="135.529"/>
        <rect x="421.647" y="271.059" style="fill:#CDCDD0;" width="60.235" height="135.529"/>
        <rect x="421.647" y="105.412" style="fill:#CDCDD0;" width="60.235" height="135.529"/>
        <rect x="30.118" y="421.647" style="fill:#CDCDD0;" width="60.235" height="60.235"/>
    </g>
    <g>
        <rect x="391.529" style="fill:#FF5023;" width="120.471" height="120.471"/>
        <rect style="fill:#FF5023;" width="120.471" height="120.471"/>
        <rect x="391.529" y="391.529" style="fill:#FF5023;" width="120.471" height="120.471"/>
        <rect y="391.529" style="fill:#FF5023;" width="120.471" height="120.471"/>
    </g>
    <circle style="fill:#00D7DF;" cx="256" cy="256" r="105.412"/>
    <path style="fill:#00A1A7;" d="M256,361.412c-58.217,0-105.412-47.194-105.412-105.412S197.783,150.588,256,150.588"/>
</svg>