<?xml version="1.0" encoding="utf-8"?>

<!-- Uploaded to: SVG Repo, www.svgrepo.com, Generator: SVG Repo Mixer Tools -->
<svg version="1.1" id="Uploaded to svgrepo.com"
    xmlns="http://www.w3.org/2000/svg"
    xmlns:xlink="http://www.w3.org/1999/xlink" width="40px" height="40px" viewBox="0 0 32 32" xml:space="preserve">
    <style type="text/css">
	.pictogram_een{fill:#F4D6B0;}
	.pictogram_twee{fill:#F8AD89;}
	.pictogram_vijf{fill:#01A59C;}
	.pictogram_zes{fill:#0C6667;}
	.st0{fill:#F27261;}
	.st1{fill:#E54D2E;}
	.st2{fill:none;}
	.st3{fill:#F8AD89;}
	.st4{clip-path:url(#SVGID_2_);fill:#01A59C;}
	.st5{clip-path:url(#SVGID_2_);fill:none;}
	.st6{clip-path:url(#SVGID_2_);fill:#0C6667;}
	.st7{fill:#0C6667;}
    </style>
    <g>
        <path class="pictogram_twee" d="M4,16c0,6.627,5.373,12,12,12V4C9.373,4,4,9.373,4,16z"/>
        <path class="pictogram_een" d="M28,16c0-6.627-5.373-12-12-12v24C22.627,28,28,22.627,28,16z"/>
        <path class="pictogram_vijf" d="M16,0v4c6.627,0,12,5.373,12,12c0,6.627-5.373,12-12,12v4c8.837,0,16-7.163,16-16S24.837,0,16,0z" />
        <path class="pictogram_vijf" d="M16,0v4c6.627,0,12,5.373,12,12c0,6.627-5.373,12-12,12v4c8.837,0,16-7.163,16-16S24.837,0,16,0z" />
        <path class="pictogram_zes" d="M16,28v4C7.163,32,0,24.837,0,16S7.163,0,16,0v4C9.373,4,4,9.373,4,16C4,22.627,9.373,28,16,28z
		 M23.5,15.5c0-0.828-0.672-1.5-1.5-1.5H10c-0.828,0-1.5,0.672-1.5,1.5S9.172,17,10,17h12C22.828,17,23.5,16.328,23.5,15.5z"/>
    </g>
</svg>