<?xml version="1.0" encoding="iso-8859-1"?>
<!-- Uploaded to: SVG Repo, www.svgrepo.com, Generator: SVG Repo Mixer Tools -->
<svg version="1.1" id="Layer_1"
    xmlns="http://www.w3.org/2000/svg"
    xmlns:xlink="http://www.w3.org/1999/xlink" viewBox="0 0 512.004 512.004" xml:space="preserve">
    <g>
        <path style="fill:#6EBEC5;" d="M74.982,437.02c-99.973-99.973-99.973-262.062,0-362.04c99.973-99.973,262.062-99.973,362.04,0
		c99.973,99.973,99.973,262.062,0,362.04C337.044,536.998,174.955,536.998,74.982,437.02L74.982,437.02z"/>
        <path style="fill:#5EABB2;" d="M437.017,437.02c39.071-39.071,62.802-87.639,71.332-138.271L276.961,67.361
		c-5.791-5.791-13.379-8.684-20.961-8.684c-7.588,0-15.171,2.893-20.961,8.684l-167.68,167.68
		c-11.576,11.576-11.576,30.346,0,41.923l231.393,231.388C349.378,499.822,397.946,476.091,437.017,437.02L437.017,437.02z"/>
        <path style="fill:#FFFFFF;" d="M276.961,444.644c-11.576,11.576-30.346,11.576-41.923,0l-167.68-167.68
		c-11.576-11.576-11.576-30.346,0-41.923l167.68-167.68c11.576-11.576,30.346-11.576,41.923,0l167.68,167.68
		c11.576,11.576,11.576,30.346,0,41.923L276.961,444.644L276.961,444.644z"/>
        <path style="fill:#CEEAF2;" d="M444.641,235.041l-167.68-167.68c-5.791-5.786-13.373-8.684-20.961-8.684v394.65
		c7.588,0,15.171-2.893,20.961-8.684l167.68-167.68C456.217,265.387,456.217,246.618,444.641,235.041L444.641,235.041z"/>
        <path style="fill:#E46A5D;" d="M255.999,437.153c-3.599,0-6.979-1.398-9.528-3.942L78.786,265.531
		c-5.253-5.253-5.253-13.798,0-19.052L246.471,78.794c2.55-2.54,5.924-3.942,9.528-3.942c3.599,0,6.984,1.398,9.533,3.948
		l167.68,167.68c2.55,2.55,3.948,5.929,3.948,9.528c0,3.599-1.398,6.979-3.948,9.523l-167.68,167.69
		C262.983,435.755,259.599,437.153,255.999,437.153L255.999,437.153z"/>
        <path style="fill:#D45446;" d="M433.208,246.474l-167.68-167.68c-2.55-2.55-5.934-3.948-9.533-3.948v362.307
		c3.599,0,6.984-1.398,9.533-3.942l167.68-167.69c2.55-2.539,3.948-5.924,3.948-9.523
		C437.155,252.398,435.757,249.024,433.208,246.474L433.208,246.474z"/>
        <path style="fill:#F1B14F;" d="M255.999,416.064L95.938,256.003L255.999,95.946l160.056,160.056L255.999,416.064L255.999,416.064z
		 M118.804,256.003l137.196,137.201l137.196-137.201L255.999,118.807L118.804,256.003L118.804,256.003z"/>

        <rect x="222.818" y="336.028" transform="matrix(-0.7071 0.7071 -0.7071 -0.7071 811.1857 336.0525)" style="fill:#D34837;" width="226.353" height="0.001"/>
        <polygon style="fill:#F0973E;" points="256.004,95.951 256.004,118.812 393.195,256.003 256.004,393.198 256.004,416.064 
		416.056,256.003 255.999,95.946 	"/>
        <polygon style="fill:#FFFFFF;" points="273.628,304.371 291.686,226.153 243.22,244.851 257.607,182.531 237.869,182.531 
		216.606,274.644 265.072,255.946 253.89,304.371 244.08,304.371 255.892,338.455 283.443,304.371 	"/>
    </g>
</svg>