<svg fill="#ffffff" width="20px" height="20px" viewBox="0 0 32 32" version="1.1"
    xmlns="http://www.w3.org/2000/svg" stroke="#ffffff">
    <g id="SVGRepo_bgCarrier" stroke-width="0"></g>
    <g id="SVGRepo_tracerCarrier" stroke-linecap="round" stroke-linejoin="round"></g>
    <g id="SVGRepo_iconCarrier">
        <title>backward</title>
        <path d="M28.318 5.32c-0.093-0.045-0.203-0.071-0.318-0.071-0.183 0-0.352 0.066-0.482 0.175l0.001-0.001-10.77 8.975v-8.398c0-0 0-0 0-0.001 0-0.414-0.336-0.75-0.75-0.75-0.183 0-0.352 0.066-0.482 0.175l0.001-0.001-12 10c-0.165 0.139-0.27 0.345-0.27 0.576s0.104 0.438 0.268 0.575l0.001 0.001 12 10c0.129 0.108 0.296 0.174 0.479 0.174 0 0 0.001 0 0.001 0h-0c0.116-0 0.225-0.026 0.323-0.072l-0.005 0.002c0.257-0.123 0.432-0.38 0.432-0.679 0-0 0-0 0-0.001v0-8.398l10.77 8.975c0.129 0.108 0.297 0.174 0.48 0.174 0 0 0 0 0 0h-0c0.116-0 0.225-0.026 0.323-0.072l-0.005 0.002c0.257-0.123 0.432-0.38 0.432-0.679 0-0 0-0 0-0.001v0-20c0 0 0-0 0-0 0-0.299-0.174-0.557-0.427-0.678l-0.005-0.002zM15.25 24.398l-10.078-8.398 10.078-8.398zM27.25 24.398l-10.078-8.398 10.078-8.398z"></path>
    </g>
</svg>