<svg height="64px" width="64px" version="1.1" id="Layer_1"
    xmlns="http://www.w3.org/2000/svg"
    xmlns:xlink="http://www.w3.org/1999/xlink" viewBox="0 0 512 512" xml:space="preserve" fill="#000000">
    <g id="SVGRepo_bgCarrier" stroke-width="0"></g>
    <g id="SVGRepo_tracerCarrier" stroke-linecap="round" stroke-linejoin="round"></g>
    <g id="SVGRepo_iconCarrier">
        <circle style="fill:#6B7F9E;" cx="256" cy="256" r="256"></circle>
        <path style="fill:#FFE356;" d="M416.6,244.3c-53.5,0-107.1,0-160.6,0s-107.1,0-160.6,0c-9.1,0-14.8,7.4-12.7,16.5 c7,30.5,14,61.1,20.9,91.7c7,30.5,13.9,61.1,20.9,91.6c2.1,9.1,9.1,16.5,15.7,16.5c38.6,0,77.2,0,115.7,0c38.6,0,77.2,0,115.8,0 c6.5,0,13.6-7.4,15.7-16.5c7-30.5,14-61.1,20.9-91.6c7-30.5,14-61.1,21-91.7C431.4,251.7,425.7,244.3,416.6,244.3z M158.7,428.6 c-0.3,0-0.6,0-0.8,0c-3,0-6.1-3.2-6.8-7.2c-4.2-23.7-8.3-47.3-12.5-71s-8.3-47.3-12.5-71c-0.7-4,1.9-7.2,5.7-7.2c0.3,0,0.7,0,1,0 c3.8,0,7.4,3.2,8,7.2c3.7,23.7,7.4,47.4,11.1,71c3.7,23.7,7.3,47.3,11,71C163.6,425.4,161.7,428.6,158.7,428.6z M198.3,426.6 c-0.3,0-0.5,0-0.8,0c-3,0-5.8-3.2-6.3-7.2c-2.5-23.7-5.1-47.3-7.7-71c-2.5-23.7-5.1-47.4-7.7-71.1c-0.4-4,2.4-7.2,6.2-7.2l0,0 c0.4,0,0.7,0,1,0c3.8,0,7.2,3.2,7.6,7.2c2.1,23.7,4.2,47.4,6.3,71.1s4.2,47.3,6.2,71C203.5,423.3,201.3,426.6,198.3,426.6z M238.3,426.6c-0.3,0-0.5,0-0.8,0c-3,0-5.6-3.2-5.8-7.2c-1-23.7-1.9-47.3-2.8-71c-0.9-23.7-1.9-47.4-2.9-71.1 c-0.2-4,2.8-7.2,6.7-7.2l0,0c0.3,0,0.6,0,1,0c3.8,0,7,3.2,7.1,7.2c0.5,23.7,1,47.4,1.5,71.1s1,47.3,1.5,71 C243.8,423.3,241.4,426.6,238.3,426.6z M287.5,348.3c-1.1,23.7-2.2,47.3-3.4,71c-0.2,4-2.8,7.2-5.8,7.2c-0.2,0-0.5,0-0.8,0 c-3,0-5.4-3.2-5.3-7.2c0.6-23.7,1.3-47.3,1.9-71c0.7-23.7,1.3-47.4,1.9-71.1c0.1-4,3.3-7.2,7.2-7.2c0.3,0,0.7,0,1,0 c3.8,0,6.8,3.2,6.6,7.2C289.7,301,288.6,324.7,287.5,348.3z M341,277.3c-2.7,23.7-5.4,47.4-8.1,71.1s-5.5,47.3-8.2,71 c-0.5,4-3.3,7.2-6.3,7.2c-0.3,0-0.5,0-0.8,0c-3,0-5.2-3.2-4.9-7.2c2.2-23.7,4.5-47.3,6.7-71s4.5-47.4,6.7-71.1 c0.4-4,3.8-7.2,7.6-7.2l0,0c0.3,0,0.7,0,1,0C338.7,270.1,341.4,273.3,341,277.3z M390.5,280.4c-4.3,23.7-8.6,47.4-13,71.1 c-4.3,23.7-8.6,47.3-12.9,71c-0.7,4-3.8,7.2-6.8,7.2c-0.3,0-0.5,0-0.8,0c-3,0-5-3.2-4.3-7.2c3.8-23.7,7.7-47.3,11.5-71 s7.7-47.4,11.5-71.1c0.6-4,4.3-7.2,8.1-7.2c0.3,0,0.6,0,1,0C388.6,273.2,391.2,276.4,390.5,280.4z"></path>
        <path style="fill:#FCD34E;" d="M91.3,256.2l333.1-1l-20.1,36.6h-15.9l2.1-11.4c0.7-4-1.8-7.2-5.7-7.2c-0.4,0-0.7,0-1,0 c-3.8,0-7.4,3.2-8.1,7.2l-1.8,11.4h-34.6l1.7-14.4c0.5-4-2.3-7.2-6.2-7.2c-0.3,0-0.7,0-1,0c-3.8,0-7.3,3.2-7.6,7.2 c-0.5,4.8-0.9,9.6-1.4,14.4h-34.6l0.7-14.4c0.2-4-2.8-7.2-6.6-7.2c-0.4,0-0.7,0-1,0c-3.8,0-7,3.2-7.2,7.2l-0.4,14.4h-34.6l-0.3-14.4 c-0.1-4-3.3-7.2-7.1-7.2c-0.4,0-0.7,0-1,0c-3.9,0-6.8,3.2-6.7,7.2l0.6,14.4H192l-1.3-14.4c-0.4-4-3.8-7.2-7.6-7.2c-0.4,0-0.7,0-1,0 c-3.8,0-6.6,3.2-6.2,7.2l1.6,14.4h-34.6l-1.9-12.4c-0.6-4-4.2-7.2-8-7.2c-0.3,0-0.7,0-1,0c-3.8,0-6.4,3.2-5.7,7.2l2.2,12.4h-20.6 L91.3,256.2L91.3,256.2z"></path>
        <path style="fill:#FFE356;" d="M72.2,225.8h367.6c10.5,0,19,8.6,19,19l0,0c0,10.5-8.6,19-19,19H72.2c-10.5,0-19-8.6-19-19l0,0 C53.2,234.4,61.7,225.8,72.2,225.8z"></path>
        <path style="fill:#83CF8F;" d="M236.7,116.1h38.5v33h26.3L256,194.6l-45.5-45.5h26.3v-33H236.7z M236.7,72.7h38.5V83h-38.5 L236.7,72.7L236.7,72.7z M236.7,108.3h38.5v-16h-38.5L236.7,108.3L236.7,108.3z"></path>
        <circle style="fill:#FF7069;" cx="65.4" cy="375.8" r="16.2"></circle>
        <circle style="fill:#F7635B;" cx="65.4" cy="375.8" r="9"></circle>
        <circle style="fill:#FCD34E;" cx="150.7" cy="248.2" r="10"></circle>
        <path style="fill:#FFFFFF;" d="M153.9,242.5L153.9,242.5c3.4,2.3,4.3,6.9,2.1,10.3L73.1,377.3c-2.3,3.4-6.9,4.3-10.3,2.1l0,0 c-3.4-2.3-4.3-6.9-2.1-10.3l82.8-124.5C145.8,241.1,150.5,240.2,153.9,242.5L153.9,242.5z"></path>
        <path style="fill:#E4E7ED;" d="M155.6,244.1c1.9,2.5,2.1,6,0.3,8.7L73.1,377.3c-1.9,2.9-5.5,4-8.6,2.9L155.6,244.1z"></path>
        <circle style="fill:#FF7069;" cx="446.6" cy="375.8" r="16.2"></circle>
        <circle style="fill:#F7635B;" cx="446.6" cy="375.8" r="9"></circle>
        <circle style="fill:#FCD34E;" cx="361.3" cy="248.2" r="10"></circle>
        <path style="fill:#FFFFFF;" d="M358.1,242.5L358.1,242.5c-3.4,2.3-4.3,6.9-2.1,10.3l82.8,124.5c2.3,3.4,6.9,4.3,10.3,2.1l0,0 c3.4-2.3,4.3-6.9,2.1-10.3l-82.8-124.5C366.2,241.1,361.5,240.2,358.1,242.5L358.1,242.5z"></path>
        <path style="fill:#E4E7ED;" d="M356.4,244.1c-1.9,2.5-2.1,6-0.3,8.7l82.8,124.5c1.9,2.9,5.5,4,8.6,2.9L356.4,244.1z"></path>
    </g>
</svg>