<svg width="20px" height="20px" viewBox="0 0 1024 1024" class="icon" version="1.1"
    xmlns="http://www.w3.org/2000/svg" fill="#000000">
    <g id="SVGRepo_bgCarrier" stroke-width="0"></g>
    <g id="SVGRepo_tracerCarrier" stroke-linecap="round" stroke-linejoin="round"></g>
    <g id="SVGRepo_iconCarrier">
        <path d="M511.9 135.3L182.7 323.7v376.8l329.1 188.4L841 700.5V323.7L511.9 135.3z m256 522.8l-256 146.5-256-146.5v-292l256-146.5 256 146.5v292z" fill="#000000"></path>
        <path d="M365.6 512.1c0 80.8 65.5 146.3 146.3 146.3 80.8 0 146.3-65.5 146.3-146.3 0-80.8-65.5-146.3-146.3-146.3-80.8 0-146.3 65.5-146.3 146.3z m219.4 0c0 40.3-32.8 73.1-73.1 73.1s-73.1-32.8-73.1-73.1 32.8-73.1 73.1-73.1 73.1 32.8 73.1 73.1z" fill="#000000"></path>
    </g>
</svg>