<?xml version="1.0" encoding="iso-8859-1"?>
<!-- Uploaded to: SVG Repo, www.svgrepo.com, Generator: SVG Repo Mixer Tools -->
<svg height="20px" width="20px" version="1.1" id="Layer_1"
    xmlns="http://www.w3.org/2000/svg"
    xmlns:xlink="http://www.w3.org/1999/xlink" viewBox="0 0 512 512" xml:space="preserve">
    <path style="fill:#FF877F;" d="M256,499.187c64.956,0,126.029-25.293,171.964-71.228c94.814-94.822,94.814-249.114,0-343.936
	C382.029,38.097,320.956,12.796,256,12.796S129.971,38.097,84.036,84.032c-94.814,94.822-94.814,249.114,0,343.936
	C129.971,473.894,191.044,499.187,256,499.187z"/>
    <g>
        <path style="fill:#573A32;" d="M437.018,437.013c99.977-99.968,99.977-262.067,0-362.027c-99.968-99.977-262.067-99.977-362.035,0
		c-99.977,99.968-99.977,262.067,0,362.027C174.95,536.99,337.05,536.99,437.018,437.013z M93.082,93.077
		c89.984-89.967,235.853-89.967,325.837,0c89.967,89.984,89.967,235.853,0,325.828c-89.984,89.967-235.853,89.967-325.837,0
		C3.115,328.93,3.115,183.061,93.082,93.077z"/>
        <path style="fill:#573A32;" d="M156.442,355.554c4.992,5.001,13.107,5.001,18.099,0L256,274.095l81.459,81.459
		c4.992,5.001,13.107,5.001,18.099,0c5.001-4.992,5.001-13.107,0-18.099l-81.459-81.459l81.459-81.459
		c5.001-4.992,5.001-13.107,0-18.099c-4.992-5.001-13.107-5.001-18.099,0L256,237.897l-81.459-81.459
		c-4.992-5.001-13.107-5.001-18.099,0c-5.001,4.992-5.001,13.107,0,18.099l81.459,81.459l-81.459,81.459
		C151.441,342.447,151.441,350.562,156.442,355.554z"/>
    </g>
</svg>