<?xml version="1.0" ?><!-- Uploaded to: SVG Repo, www.svgrepo.com, Generator: SVG Repo Mixer Tools -->
<svg width="40px" height="40px" viewBox="0 0 64 64" data-name="Layer 1" id="Layer_1"
    xmlns="http://www.w3.org/2000/svg">
    <defs>
        <style>.cls-1{fill:#0074ff;}.cls-2{fill:#ffb300;}</style>
    </defs>
    <title/>
    <path class="cls-1" d="M56.5,58.92H7.5a2,2,0,0,1-2-2V46.64a2,2,0,0,1,2-2h6.11a2,2,0,0,1,0,4H9.5v6.28h45V48.64H24.86a2,2,0,0,1,0-4H56.5a2,2,0,0,1,2,2V56.92A2,2,0,0,1,56.5,58.92Z"/>
    <path class="cls-2" d="M30,42.18a18.55,18.55,0,1,1,18-23.1l1.18-1.3a2,2,0,0,1,3,2.69L48,25a2,2,0,0,1-3.48-1.34A14.56,14.56,0,1,0,30,38.18a14.41,14.41,0,0,0,10.45-4.43,2,2,0,0,1,2.88,2.78A18.38,18.38,0,0,1,30,42.18Z"/>
    <path class="cls-2" d="M46.51,25.63a2,2,0,0,1-.91-.22L40.9,23a2,2,0,1,1,1.83-3.56l4.69,2.41a2,2,0,0,1-.91,3.78Z"/>
</svg>