<svg height="64px" width="64px" version="1.1" id="Layer_1"
    xmlns="http://www.w3.org/2000/svg"
    xmlns:xlink="http://www.w3.org/1999/xlink" viewBox="0 0 512 512" xml:space="preserve" fill="#000000">
    <g id="SVGRepo_bgCarrier" stroke-width="0"></g>
    <g id="SVGRepo_tracerCarrier" stroke-linecap="round" stroke-linejoin="round"></g>
    <g id="SVGRepo_iconCarrier">
        <circle style="fill:#b446a0;" cx="256" cy="256" r="256"></circle>
        <path style="opacity:0.1;enable-background:new ;" d="M342.379,151.819c-12.496-13.061-29.552-21.616-48.8-22.523 c-13.76-0.64-26.72,2.56-38.027,8.533c-15.307-17.44-37.653-28.48-62.72-28.48c-46.08,0-83.52,37.387-83.52,83.52 c0,28.139,14.005,53.003,35.371,68.144l-0.021,0.037l53.925,53.925c-5.227,10.816-11.504,21.147-18.875,30.747 c-3.211,4.176-2.816,9.36-0.208,12.987l-0.064,0.016l0.219,0.219c0.555,0.731,1.205,1.371,1.941,1.941l142.021,142.021 c90-24.592,160.187-97.035,181.568-188.315L342.4,151.808L342.379,151.819z"></path>
        <path style="fill:#FCD462;" d="M400.357,345.744c-23.611-30.757-36.608-68.619-36.608-107.819v-32.891 c0-39.701-30.507-73.856-70.16-75.723c-42.336-1.995-77.291,31.744-77.291,73.643v34.971c0,39.2-12.997,77.061-36.608,107.819 c-5.467,7.12-0.629,17.392,8.347,17.392h203.968C400.987,363.136,405.824,352.864,400.357,345.744z"></path>
        <path style="fill:#F6C358;" d="M283.557,150.613c32.432,0,58.816,26.384,58.816,58.811v34.971 c0,37.392,10.624,73.147,30.427,103.829h10.816c-22.597-32.075-34.779-70.251-34.779-110.299v-34.971 c0-32.427-26.384-58.811-58.816-58.811c-17.856,0-33.851,8.027-44.64,20.629C255.669,155.968,268.992,150.613,283.557,150.613z"></path>
        <path style="fill:#DC8744;" d="M250.496,363.136c0,21.829,17.696,39.531,39.531,39.531c21.829,0,39.531-17.696,39.531-39.531 H250.496z"></path>
        <path style="fill:#64798A;" d="M192.848,109.333c-46.128,0-83.515,37.392-83.515,83.515s37.392,83.515,83.515,83.515 s83.515-37.392,83.515-83.515C276.368,146.725,238.976,109.333,192.848,109.333z M192.848,261.637 c-37.989,0-68.789-30.8-68.789-68.789s30.8-68.789,68.789-68.789s68.789,30.8,68.789,68.789 C261.637,230.843,230.843,261.637,192.848,261.637z"></path>
        <path style="fill:#3A556A;" d="M192.848,124.059c-37.989,0-68.789,30.8-68.789,68.789s30.8,68.789,68.789,68.789 s68.789-30.8,68.789-68.789S230.843,124.059,192.848,124.059z M192.848,259.413c-36.763,0-66.565-29.803-66.565-66.56 s29.803-66.565,66.565-66.565s66.56,29.803,66.56,66.565S229.611,259.413,192.848,259.413z"></path>
        <circle style="fill:#EBF0F3;" cx="192.853" cy="192.853" r="66.56"></circle>
        <g>
            <circle style="fill:#E56353;" cx="252.107" cy="192.853" r="3.099"></circle>
            <circle style="fill:#E56353;" cx="192.853" cy="133.6" r="3.099"></circle>
            <circle style="fill:#E56353;" cx="192.853" cy="252.107" r="3.099"></circle>
            <circle style="fill:#E56353;" cx="133.6" cy="192.853" r="3.099"></circle>
        </g>
        <path style="fill:#3A556A;" d="M228.619,192.848l-1.323-1.568l-26.421-0.704c0.208,0.725,0.352,1.477,0.352,2.272 s-0.144,1.547-0.352,2.272l26.421-0.704L228.619,192.848z"></path>
        <path style="fill:#2F4859;" d="M200.875,190.576l-5.616-0.149v4.843l5.616-0.149c0.208-0.725,0.352-1.477,0.352-2.272 C201.227,192.059,201.077,191.307,200.875,190.576z"></path>
        <g>
            <polygon style="fill:#64798A;" points="195.531,188.8 190.171,188.8 191.28,147.056 192.848,145.733 194.416,147.056 "></polygon>
            <circle style="fill:#64798A;" cx="192.853" cy="192.853" r="5.333"></circle>
        </g>
        <polygon style="fill:#E56353;" points="190.432,196.373 236.219,150.581 235.147,149.509 189.355,195.301 188.821,194.763 177.019,206.565 179.168,208.709 190.965,196.912 "></polygon>
        <circle style="fill:#3A556A;" cx="192.853" cy="192.853" r="3.099"></circle>
    </g>
</svg>