<svg version="1.1" id="Layer_1"
    xmlns="http://www.w3.org/2000/svg"
    xmlns:xlink="http://www.w3.org/1999/xlink" viewBox="0 0 512 512" xml:space="preserve" width="64px" height="64px" fill="#000000">
    <g id="SVGRepo_bgCarrier" stroke-width="0"></g>
    <g id="SVGRepo_tracerCarrier" stroke-linecap="round" stroke-linejoin="round"></g>
    <g id="SVGRepo_iconCarrier">
        <path d="M449.56,114.432v259.144H62.528V114.432H449.56 M460.768,90.432H51.32c-7.04,0-12.8,5.76-12.8,12.8v294.352 c0,0,433.928,0,435.04,0v-294.36C473.56,96.184,467.8,90.432,460.768,90.432L460.768,90.432z M473.568,397.576 C473.568,397.576,473.56,397.576,473.568,397.576C473.56,397.576,473.568,397.576,473.568,397.576L473.568,397.576z"></path>
        <rect x="54.52" y="106.424" style="fill:#E21B1B;" width="403.04" height="275.152"></rect>
        <rect y="397.576" style="fill:#D8D8D8;" width="511.912" height="8"></rect>
        <polygon style="fill:#AAAAAA;" points="486.408,421.568 25.688,421.568 0.088,405.576 512,405.576 "></polygon>
        <g style="opacity:0.7;">
            <path style="fill:#FFFFFF;" d="M298.992,397.576H212.92c0.816,4.488,4.824,8,9.832,8h66.4 C294.168,405.576,298.176,402.064,298.992,397.576z"></path>
        </g>
        <path style="fill:#FFFFFF;" d="M344.888,150.048c-26.296,0-47.616,21.32-47.616,47.616s21.32,47.616,47.616,47.616 c26.288,0,47.6-21.304,47.616-47.584h-47.616V150.048z"></path>
        <path d="M387.08,155.512L353.392,189.2h47.616c0-0.008,0-0.024,0-0.032C401.008,176.024,395.688,164.128,387.08,155.512 L387.08,155.512z"></path>
        <path style="fill:#FFFFFF;" d="M353.392,141.544V189.2l33.688-33.688C378.464,146.88,366.552,141.544,353.392,141.544z"></path>
        <polygon points="362.176,289.176 336.104,289.176 336.104,337.264 362.176,337.264 "></polygon>
        <rect x="289.52" y="261.688" style="fill:#FFFFFF;" width="26.072" height="75.584"></rect>
        <polygon points="269.032,230.768 242.968,230.768 242.968,337.264 269.032,337.264 "></polygon>
        <rect x="196.392" y="199.848" style="fill:#FFFFFF;" width="26.072" height="137.44"></rect>
        <polygon points="175.896,179.24 149.824,179.24 149.824,337.264 175.896,337.264 "></polygon>
    </g>
</svg>