<svg height="20px" width="20px" version="1.1" id="Layer_1"
    xmlns="http://www.w3.org/2000/svg"
    xmlns:xlink="http://www.w3.org/1999/xlink" viewBox="0 0 512.2 512.2" xml:space="preserve" fill="#000000">
    <g id="SVGRepo_bgCarrier" stroke-width="0"></g>
    <g id="SVGRepo_tracerCarrier" stroke-linecap="round" stroke-linejoin="round"></g>
    <g id="SVGRepo_iconCarrier">
        <circle style="fill:#2a4f7e;" cx="256.1" cy="256" r="256"></circle>
        <path style="fill:#596366;" d="M163.1,304.4c13.8-24.6,35.8-53.2,13.6-96.6C132.5,49,294.7,26.6,317.5,88.8 c37,14.8,36.2,95.8,17,138.4c-0.8,17.4-14.6,32,16.6,77C268.5,318,220.5,313.4,163.1,304.4z"></path>
        <path style="fill:#FFD190;" d="M231.1,258.8c-1.4,27-11,35.4-24.4,42.4c-6.8,6-54.8,9.6-72.4,31.6c-15.2,19-27.4,82.8-34.2,126.4 c14.2,10.8,29.4,20.2,45.6,28l7.4-79.6c0,0,5.4,39.4,10.4,44.8c2.8,3.2,3.6,21,3.8,38.4l21.2,12.2c21.6,6,44.2,9,67.8,9 c22.2,0,43.6-2.8,64-8l22.8-13.2c0.2-17.2-0.2-34,3.8-38.4c4-4.4,10.4-44.8,10.4-44.8l6.2,81c16.6-7.6,32.2-17,46.6-27.8 c-5-42-13.8-104.6-26.2-125.6c-15.2-25.6-65.2-28.2-71.4-33.4c-13-7.2-22.4-16.2-23.8-43.2c0,0-19.4,15-31.4,12.8 c-12-2.4-25.8-12.8-25.8-12.8L231.1,258.8z"></path>
        <path style="fill:#E4E7ED;" d="M222.9,288.4c-4.2,5.8-9.6,9.6-16,12.8c-6.8,6-54.8,9.6-72.4,31.6c-15.2,19-27.2,83-34,126.6 c14.8,11.4,31,21.2,48,29.2l4.6-80.8c0,0,6.6,40.8,10.4,44.8c2.8,3,3.2,24.8,3.4,43.6c27.8,10.4,57.8,16,89.2,16 c30.6,0,60-5.4,87.2-15.2c0.2-18.8,0.6-41.4,3.4-44.4c3.8-4,10.4-44.8,10.4-44.8l5.4,81.4c17.8-8.2,34.4-18.2,49.8-30 c-5.8-41.6-16.4-102.8-28.6-123.6c-15.2-25.6-65.2-28.2-71.4-33.4c-5.6-3.2-10.4-6.6-14.4-11.6l-36,68.8l-39.2-71H222.9z"></path>
        <path style="fill:#F0B97D;" d="M230.5,267.2c7,4.2,18.8,17.4,30,17.6c11,0.2,26.6-16.2,28.8-17.4c-0.2-1.6-0.4-3.2-0.4-4.8l-0.2,0.2 l0,0l0,0c-0.6,0.4-19.6,15.4-31.4,13c-11.8-2.2-25-12.4-25.8-13l-0.2-0.2c-0.2,1.6-0.2,3.2-0.4,4.6H230.5z"></path>
        <path style="fill:#FFD190;" d="M199.9,215.6c12,25.6,16.4,35.6,31.2,47.2c0,0,13.8,10.6,25.8,13c12,2.4,31.4-13,31.4-13 c14.8-11.6,19.4-21.6,31.2-47.2c3,1.6,6,3.6,8.4,1c2.4-2.8,13.8-38.2,11.6-43c-2-4.8-6.2-1.4-7,0.4c-0.6,0.8-1.2,4.4-2,4.4 c-0.8,0-1-1.6-2.2-5c-3.4-9.8-10.6-19.8-13.2-52.4c-54.2,53.8-105,29.2-122.6,32.8c-4.6,1-5,12.2-4.6,18.8c0,0.8,1.2,3.8,0.8,4 c-0.6,0-2.4-3-2.8-3.2c-17.6-11.4,5,42.6,5.4,43.2c2.4,2.8,5.4,0.6,8.4-1H199.9z"></path>
        <path style="fill:#5D718F;" d="M165.7,495.6c-0.2-18.2-0.6-39.2-0.8-41c-13.2-14.4-13-47-13-47s15.2-17.6,27-39.8 c18.8-2.2,76.6-0.4,76.6-0.4s57.6-1.8,76.6,0.4c4.4,14.8,27,39.8,27,39.8c0.6,4.8-4,41.2-12.4,45.6c-0.4,1.4-0.8,24-1.2,43 c-27.6,10.2-57.6,15.8-88.8,15.8c-31.8,0-62.4-5.8-90.6-16.4H165.7z"></path>
        <g>
            <path style="fill:#6B7F9E;" d="M202.7,302.8l-7,95c-0.2,3-4,6.8-13.6,6.6c-9.6-0.4-8.2-8.4-8.2-8.4l9.2-87.2l19.8-5.8L202.7,302.8z "></path>
            <path style="fill:#6B7F9E;" d="M319.7,304.2l-0.4,92.4c0,3,4,7.8,13.8,7.4c9.6-0.4,10-9,10-9l-3.2-85.6l-20.2-5.4V304.2z"></path>
        </g>
        <g>
            <path style="fill:#FFE356;" d="M184.3,386.6c3.4,0,6.2,2.8,6.2,6.2c0,3.4-2.8,6.2-6.2,6.2s-6.2-2.8-6.2-6.2 C178.1,389.4,180.9,386.6,184.3,386.6z"></path>
            <path style="fill:#FFE356;" d="M330.9,386.6c3.4,0,6.2,2.8,6.2,6.2c0,3.4-2.8,6.2-6.2,6.2c-3.4,0-6.2-2.8-6.2-6.2 C324.7,389.4,327.5,386.6,330.9,386.6z"></path>
        </g>
        <g>
            <path style="fill:#FFFFFF;" d="M222.5,287.8l22.8,41.4c0,0-22.4-2.2-26.8,5.6c-4.4,7.8-14.4,17.2-14.4,17.2l13-57.6L222.5,287.8z"></path>
            <path style="fill:#FFFFFF;" d="M298.5,288.8l-21,40.6c0,0,21.6-2.6,26,5.2s13.8,14.6,13.8,14.6l-12.2-54.8L298.5,288.8z"></path>
            <path style="fill:#FFFFFF;" d="M346.1,117.4v63.8h-11.8v-63.8c0-27.8-19.8-45.6-45-53.4c-10-3.2-21-4.6-32-4.6c-11,0-22,1.6-32,4.6 c-25.2,7.8-45,25.6-45,53.4v63.8h-11.8v-63.8c0-33.2,23.2-54.4,53-63.8c11.4-3.6,23.6-5.2,35.8-5.2c12.2,0,24.4,1.8,35.8,5.2 C322.9,62.8,346.1,84,346.1,117.4z"></path>
        </g>
        <path style="fill:#6B7F9E;" d="M182.5,167.4h-5.6c-5.2,0-9.6,4.4-9.6,9.6v37.4c0,5.2,4.4,9.6,9.6,9.6h5.6c5.2,0,9.6-4.4,9.6-9.6V177 C192.1,171.8,187.7,167.4,182.5,167.4z"></path>
        <path style="fill:#FFE356;" d="M178.1,164.2h-11.6c-1.6,0-2.8,1.4-2.8,2.8v57.2c0,1.6,1.4,2.8,2.8,2.8h11.6c1.6,0,2.8-1.4,2.8-2.8 V167C180.9,165.4,179.5,164.2,178.1,164.2z"></path>
        <path style="fill:#6B7F9E;" d="M332.7,167.4h5.6c5.2,0,9.6,4.4,9.6,9.6v37.4c0,5.2-4.4,9.6-9.6,9.6h-5.6c-5.2,0-9.6-4.4-9.6-9.6V177 C323.1,171.8,327.5,167.4,332.7,167.4z"></path>
        <path style="fill:#FFE356;" d="M337.1,164.2h11.6c1.6,0,2.8,1.4,2.8,2.8v57.2c0,1.6-1.4,2.8-2.8,2.8h-11.6c-1.6,0-2.8-1.4-2.8-2.8 V167C334.3,165.4,335.7,164.2,337.1,164.2z"></path>
        <path style="fill:#FFFFFF;" d="M241.7,274.8c-8.6-0.2-17-1.4-24.8-3.8c-21-6.6-37.4-21.4-37.4-44.4v-10.2c0.2-3.8-8.4-5.8-9.8,0 v10.2c0,27.6,19.4,45.4,44.2,53c8.8,2.8,18.4,4.2,28,4.4v-9L241.7,274.8z"></path>
        <path style="fill:#596366;" d="M242.1,264.8h24c2.8,0,5.2,2.4,5.2,5.2v16.2c0,2.8-2.4,5.2-5.2,5.2h-24c-2.8,0-5.2-2.4-5.2-5.2V270 C236.9,267.2,239.3,264.8,242.1,264.8z"></path>
        <path style="fill:#6C7678;" d="M238.1,268.8h32c0.6,0,1.2,0.6,1.2,1.2v16c0,0.6-0.6,1.2-1.2,1.2h-32c-0.6,0-1.2-0.6-1.2-1.2v-16 C236.9,269.4,237.5,268.8,238.1,268.8z"></path>
    </g>
</svg>