<?xml version="1.0" encoding="iso-8859-1"?>
<!-- Uploaded to: SVG Repo, www.svgrepo.com, Generator: SVG Repo Mixer Tools -->
<svg height="20px" width="20px" version="1.1" id="Layer_1"
    xmlns="http://www.w3.org/2000/svg"
    xmlns:xlink="http://www.w3.org/1999/xlink" viewBox="0 0 390.206 390.206" xml:space="preserve">
    <g>
        <path style="fill:#194F82;" d="M130.101,99.685C131.2,99.685,129.584,99.168,130.101,99.685L130.101,99.685z"/>
        <path style="fill:#194F82;" d="M127.903,120.824C126.869,120.824,128.485,121.406,127.903,120.824L127.903,120.824z"/>
    </g>
    <polygon style="fill:#56ACE0;" points="258.554,353.358 307.297,304.549 258.554,304.549 "/>
    <path style="fill:#FFC10D;" d="M247.693,282.893h53.139V43.378H89.438v303.515h147.394v-53.139
	C236.897,287.806,241.745,282.893,247.693,282.893z"/>
    <g>
        <path style="fill:#194F82;" d="M127.903,145.778c-7.046,0-12.477-5.43-12.477-12.477c0-5.947-4.848-10.861-10.861-10.861
		s-10.861,4.848-10.861,10.861c0,15.192,9.762,27.669,23.273,32.517v7.564c0,5.947,4.848,10.861,10.861,10.861
		c6.012,0,10.861-4.848,10.861-10.861v-7.564c13.576-4.331,23.273-17.325,23.273-32.517c0-17.907-14.093-32.517-31.418-34.133
		c-9.244,0.517-14.61-5.947-14.61-12.477c0-7.046,5.43-12.477,12.477-12.477c7.046,0,12.477,5.43,12.477,12.477
		c0,5.947,4.848,10.861,10.861,10.861c5.947,0,10.861-4.848,10.861-10.861c0-15.192-9.762-27.669-23.273-32.517v-7.046
		c0-5.947-4.848-10.861-10.861-10.861c-6.012,0-10.861,4.848-10.861,10.861v7.564c-13.576,4.331-23.273,17.325-23.273,32.517
		c0,17.907,13.576,33.034,34.133,34.133c7.046,0,12.477,5.43,12.477,12.477C140.38,140.347,134.949,145.778,127.903,145.778z"/>
        <path style="fill:#194F82;" d="M333.349,0H56.921c-5.947,0-10.861,4.848-10.861,10.861v368.485c0,5.947,4.848,10.861,10.861,10.861
		h190.772c2.715,0,5.43-1.099,7.564-3.232l85.657-85.657c2.198-2.198,3.232-4.848,3.232-7.564V10.861
		C344.145,4.848,339.297,0,333.349,0z M258.554,353.358v-48.808h48.808L258.554,353.358z M322.489,282.893h-74.796
		c-5.947,0-10.861,4.848-10.861,10.861v74.796H67.782V21.657h254.707V282.893z"/>
        <path style="fill:#194F82;" d="M195.135,66.651h95.418c5.947,0,10.861-4.848,10.861-10.861s-4.848-10.861-10.861-10.861h-95.418
		c-5.947,0-10.861,4.848-10.861,10.861S189.188,66.651,195.135,66.651z"/>
        <path style="fill:#194F82;" d="M195.135,122.505h95.418c5.947,0,10.861-4.848,10.861-10.861s-4.848-10.861-10.861-10.861h-95.418
		c-5.947,0-10.861,4.848-10.861,10.861S189.188,122.505,195.135,122.505z"/>
        <path style="fill:#194F82;" d="M195.135,178.295h95.418c5.947,0,10.861-4.848,10.861-10.861s-4.848-10.861-10.861-10.861h-95.418
		c-5.947,0-10.861,4.848-10.861,10.861S189.188,178.295,195.135,178.295z"/>
        <path style="fill:#194F82;" d="M96.485,233.568h194.004c5.947,0,10.861-4.848,10.861-10.861c0-5.947-4.848-10.861-10.861-10.861
		H96.485c-5.947,0-10.861,4.848-10.861,10.861C85.689,228.719,90.537,233.568,96.485,233.568z"/>
        <path style="fill:#194F82;" d="M96.485,289.422h95.418c5.947,0,10.861-4.848,10.861-10.861c0-5.947-4.848-10.861-10.861-10.861
		H96.485c-5.947,0-10.861,4.848-10.861,10.861C85.689,284.509,90.537,289.422,96.485,289.422z"/>
        <path style="fill:#194F82;" d="M96.485,345.212h95.418c5.947,0,10.861-4.848,10.861-10.861c0-5.947-4.848-10.861-10.861-10.861
		H96.485c-5.947,0-10.861,4.848-10.861,10.861C85.689,340.364,90.537,345.212,96.485,345.212z"/>
    </g>
</svg>