<svg width="64px" height="64px" viewBox="0 0 100 100" id="Layer_1" version="1.1" xml:space="preserve"
    xmlns="http://www.w3.org/2000/svg"
    xmlns:xlink="http://www.w3.org/1999/xlink" fill="#000000">
    <g id="SVGRepo_bgCarrier" stroke-width="0"></g>
    <g id="SVGRepo_tracerCarrier" stroke-linecap="round" stroke-linejoin="round"></g>
    <g id="SVGRepo_iconCarrier">
        <style type="text/css"> .st0{fill:#F15A22;} .st1{fill:#FDB913;} .st2{fill:none;} </style>
        <title></title>
        <g>
            <g id="fill">
                <path class="st0" d="M94,14.6c-0.2-2.9,0.1-7-1.3-9.6c-1.4-2.5-3.8-2.6-6.4-2.4C82,2.9,77.7,3.5,73.4,4.4 c-8.2,1.7-16.1,4.4-23.7,7.9c-2.6,1.2-2.3,5.2,0,6.5c2.6,1.4,5.2,3,7.7,4.6c-7.7,19-20.9,35.2-37.9,46.5c-1.4,0.9-2.1,2.7-1.6,4.3 c-3.4,2.1-6.9,4.1-10.4,6.1c-4.3,2.3-0.5,8.8,3.8,6.5c3.9-2.1,7.7-4.4,11.4-6.7c12.4-4.6,23.3-12,33.2-20.7 c7.7-6.8,17.1-14.9,21.7-24.6c1.9,2.4,3.9,4.9,5.8,7.4c0.4,0.5,1,0.9,1.6,1.1c0.6,0.3,1.2,0.5,1.9,0.5c7.3,0.2,6.7-10.1,7-15.1 C94.3,23.9,94.3,19.2,94,14.6z"></path>
                <path class="st1" d="M92.9,54.9c-2.8-3.2-9.1-6.9-13.3-7.3c-5.1-0.5-9.1,7.2-11.8,10.6c-4,5.1-8.7,9.6-13.8,13.5 C43.8,79.5,31.6,89,18.4,89.5c-4.8,0.2-4.9,7.7,0,7.5c0.7,0,1.5-0.1,2.2-0.2c0.5,0.2,1.1,0.3,1.6,0.3c13.3-0.1,26.5-1.1,39.6-3.1 c0.1,0,0.3,0.1,0.4,0.1c6.3,0.8,12.7,0.9,19.1,0.4c0.8-0.1,1.6-0.2,2.3-0.3c0.2,0,0.4,0.1,0.6,0.1c4.2,0.4,8.9-0.5,10.6-4.8 c1.1-2.7,0.7-6.3,0.7-9.2c0-3.2,0.1-6.4,0.1-9.6C95.6,65.5,96.5,59.2,92.9,54.9z"></path>
            </g>
            <g id="line_copy">
                <path class="st2" d="M76.6,93.8c0-0.1,0.1-0.2,0.1-0.4c-0.7-12-1.4-24.1-2-36.1c-3.1,3.6-6.4,7-9.9,10.2c0,0.1,0.1,0.2,0.1,0.4 c0.3,8.6,0.6,17.3,0.8,25.9c3.2-0.1,6.3-0.1,9.5-0.1h0.3L76.6,93.8z"></path>
                <path class="st2" d="M89.8,56c-0.1,0-0.1-0.1-0.2-0.1c-0.1,0-0.2-0.1-0.5-0.2c-0.6-0.2-1.5-0.7-3.4-1.6c-1.2-0.6-2.3-1.1-3.3-1.6 c-0.5-0.2-1-0.4-1.6-0.4c-1.1,0-2.1,0.5-2.8,1.3l0,0l0,0c-0.2,0.3-0.4,0.5-0.6,0.8l2.2,39.6h0.6c2.2,0,3.8,0,5.1-0.2 c1-0.1,1.9-0.3,2.8-0.7c0.4-0.2,0.9-0.5,1.2-0.9c0.5-0.4,0.8-1,1-1.6c0.2-0.9,0.3-1.8,0.3-2.6c0-1.7-0.1-4.1-0.1-7.4 c0-2.1,0.1-4.6,0.2-7.6c0.3-4.8,0.8-8.7,0.8-11.6c0-1.2-0.1-2.3-0.4-3.4C90.8,57.1,90.4,56.5,89.8,56z"></path>
                <path class="st2" d="M49.3,79.6c-1.7,1-4.4,2.7-8.1,4.6c0.1,0.2,0.1,0.3,0.1,0.5c0,3.3,0.2,6.6,0.5,9.9c2.5-0.1,4.8-0.1,7.1-0.2 c0.3,0,0.6,0,1,0C49.6,89.4,49.4,84.5,49.3,79.6z"></path>
                <path class="st2" d="M38.5,85.6c-2.2,1.1-4.7,2.2-7.4,3.3c-0.6,0.2-1.1,0.4-1.7,0.7c0.2,1.7,0.4,3.4,0.5,5.1c0.6,0,1.3,0,1.9,0 c2.6,0,5,0,7.2-0.1C38.7,91.6,38.6,88.6,38.5,85.6z"></path>
                <path class="st2" d="M9.7,85.1c1.1-0.3,2.3-0.7,3.6-1.1c2.5-0.9,4.9-1.8,6-2.3c9.2-3.8,27.2-12.6,46.6-33.3 c3-3.2,6.7-7.4,10.6-12.5c0.5-0.6,1.4-0.7,2-0.3c0,0,0,0,0.1,0C80.2,37,82,38.5,84,40c1,0.8,2,1.5,3,2.2c0.3,0.2,0.6,0.3,1,0.3 c0.4,0,0.8-0.2,1.1-0.4c0.3-0.3,0.5-0.7,0.5-1.1l0,0c0.2-4.8,0.3-9.7,0.3-14.8l0,0v-0.7c0-5.5-0.1-10.8-0.3-16 C89.6,8,88.4,6.9,87,6.9c-0.2,0-0.3,0-0.5,0.1c-11,2.5-21.9,5.2-32.8,8.1c-0.3,0.1-0.6,0.3-0.8,0.5c-0.2,0.3-0.3,0.6-0.3,0.9 c0,0.5,0.3,1,0.7,1.2c0.9,0.5,1.8,1.1,2.7,1.6c2.1,1.3,4.2,2.4,6.2,3.5c0.7,0.4,1,1.2,0.6,1.9c-3,5.9-6.5,11.5-10.5,16.8 C44,52.7,34.6,61.2,22.8,71.8C16.6,77.4,12,81.3,9.4,83.7c-0.6,0.6-1.2,1.1-1.7,1.8C8.4,85.4,9,85.3,9.7,85.1z"></path>
                <path class="st2" d="M62.1,70c-3.2,2.8-6.5,5.4-10,7.7c0,0.1,0,0.1,0,0.2c0.1,5.4,0.3,10.9,0.6,16.3c3.4-0.1,6.8-0.2,10.2-0.3 C62.6,86,62.4,78,62.1,70z"></path>
                <path class="st2" d="M26.7,90.6c-4.4,1.6-8.1,2.7-10.6,3.5c-0.2,0.1-0.4,0.1-0.5,0.2c1.7,0.1,4.2,0.2,7.6,0.3c1.4,0,2.7,0,4,0.1 C27,93.3,26.8,91.9,26.7,90.6z"></path>
                <path d="M5.2,87.9c0.3,0.2,0.6,0.3,1,0.4c0.3,0.1,0.6,0.1,0.9,0.1c1.1,0,2.2-0.2,3.3-0.5c1.9-0.5,3.8-1.1,5.7-1.9 c1.8-0.7,3.4-1.3,4.3-1.7c9.4-3.9,27.8-12.9,47.6-34c2.8-3,6.2-6.9,9.9-11.6c1.4,1.2,2.9,2.3,4.5,3.5c1.1,0.8,2.1,1.5,3.1,2.2 c1.7,1.2,4,1,5.6-0.4c0.9-0.8,1.4-1.9,1.4-3.1l0,0c0.2-4.8,0.3-9.8,0.3-14.9l0,0v-0.7c0-5.5-0.1-10.9-0.3-16.1 c-0.1-2.9-2.5-5.2-5.4-5.2c-0.4,0-0.8,0-1.2,0.1c-11,2.5-22,5.2-32.9,8.1c-1,0.2-1.8,0.8-2.4,1.6c-0.5,0.7-0.8,1.6-0.8,2.5 c0,1.5,0.8,2.8,2,3.6c0.9,0.6,1.8,1.1,2.7,1.7c1.7,1,3.5,2,5.1,2.9c-2.8,5.3-6,10.4-9.6,15.2C42,50.8,32.8,59.1,20.9,69.7 c-5.1,4.6-9.1,8-11.9,10.5c-1.1,1-2.2,2.1-3.3,3.2c-0.4,0.4-0.7,0.8-1,1.3c-0.3,0.5-0.4,1-0.5,1.5c0,0.4,0.1,0.7,0.3,1 C4.8,87.5,5,87.7,5.2,87.9z M9.4,83.7c2.6-2.5,7.2-6.4,13.5-11.9C34.6,61.2,44,52.7,52.4,41.6c4-5.3,7.4-10.9,10.5-16.8 c0.4-0.7,0.1-1.5-0.6-1.9c-2-1.1-4.1-2.2-6.2-3.5c-0.9-0.5-1.8-1.1-2.7-1.6c-0.4-0.3-0.7-0.7-0.7-1.2c0-0.3,0.1-0.6,0.3-0.9 c0.2-0.3,0.5-0.5,0.8-0.5C64.6,12.2,75.5,9.5,86.5,7c1.4-0.3,2.8,0.6,3.1,2c0,0.2,0.1,0.3,0.1,0.5c0.2,5.1,0.3,10.5,0.3,16v0.7 l0,0c0,5.1-0.1,10-0.3,14.8l0,0c0,0.4-0.2,0.8-0.5,1.1c-0.3,0.3-0.7,0.4-1.1,0.4c-0.3,0-0.7-0.1-1-0.3c-1-0.7-2-1.4-3-2.2 c-2-1.5-3.8-2.9-5.5-4.3c-0.6-0.5-1.5-0.4-2,0.2c0,0,0,0,0,0.1c-3.9,5.1-7.6,9.3-10.6,12.5C46.5,69.1,28.5,77.9,19.3,81.7 c-1.2,0.5-3.6,1.5-6,2.3c-1.2,0.4-2.5,0.8-3.6,1.1c-0.7,0.2-1.3,0.3-2,0.4C8.2,84.9,8.8,84.3,9.4,83.7z"></path>
                <polygon points="4.6,87.2 4.6,87.2 4.6,87.2 "></polygon>
                <path d="M91.5,53.7c-0.2-0.1-0.4-0.3-0.6-0.4c-0.3-0.2-0.6-0.3-1.2-0.6s-1.5-0.7-2.9-1.3c-1.2-0.6-2.3-1.1-3.3-1.6 c-2.7-1.3-5.9-0.6-7.8,1.8l0,0l0,0c-7.6,9.7-16.7,18.1-27,24.9c-5.9,3.8-12.2,7-18.7,9.6c-5.2,2.1-9.8,3.5-13.2,4.6 c-1.7,0.5-3,1-4.1,1.4c-0.5,0.2-0.9,0.4-1.3,0.7c-0.2,0.2-0.4,0.4-0.6,0.6c-0.2,0.3-0.4,0.7-0.4,1.1c0,0.1,0,0.2,0,0.2l0,0v0v0 l0,0c0,0.2,0.1,0.5,0.3,0.7c0.2,0.3,0.5,0.6,0.8,0.7c0.5,0.2,1,0.4,1.6,0.5c1.2,0.2,2.5,0.3,3.7,0.4c1.6,0.1,3.6,0.2,6.1,0.2 c3.2,0.1,6.1,0.1,8.7,0.1c6.9,0,12.2-0.2,17.1-0.3c8.8-0.2,17.5-0.6,26.2-0.6h0.3v-1.4v1.4c1.8,0,3.3,0,4.7,0 c2.3,0.1,4.5,0,6.7-0.4c0.8-0.1,1.6-0.4,2.4-0.8c0.7-0.4,1.4-0.8,1.9-1.4c0.8-0.8,1.4-1.7,1.7-2.8c0.3-1.1,0.4-2.3,0.4-3.4 c0-1.8-0.1-4.1-0.1-7.4c0-2,0.1-4.5,0.2-7.4c0.3-4.7,0.8-8.6,0.8-11.7c0-1.5-0.1-2.9-0.5-4.3C93.3,55.7,92.6,54.6,91.5,53.7z M52.1,78c0-0.1,0-0.1,0-0.2c3.5-2.4,6.8-5,10-7.7c0.3,8,0.5,16,0.8,24c-3.4,0.1-6.8,0.2-10.2,0.3C52.4,88.9,52.2,83.4,52.1,78z M15.6,94.3c0.2-0.1,0.3-0.1,0.5-0.2c2.5-0.8,6.2-1.9,10.6-3.5c0.1,1.4,0.3,2.7,0.4,4.1c-1.3,0-2.6,0-4-0.1 C19.8,94.5,17.3,94.4,15.6,94.3z M29.9,94.7c-0.2-1.7-0.4-3.4-0.5-5.1c0.6-0.2,1.1-0.4,1.7-0.7c2.7-1.1,5.2-2.2,7.4-3.3 c0.1,3,0.2,6,0.5,9c-2.2,0-4.6,0.1-7.2,0.1C31.2,94.7,30.6,94.7,29.9,94.7z M48.9,94.4c-2.2,0-4.6,0.1-7.1,0.2 c-0.3-3.3-0.5-6.6-0.5-9.9c0-0.2,0-0.3-0.1-0.5c3.7-1.9,6.5-3.6,8.1-4.6c0.1,4.9,0.3,9.8,0.5,14.8C49.5,94.4,49.2,94.4,48.9,94.4 L48.9,94.4z M75.2,93.8c-3.2,0-6.3,0.1-9.5,0.1c-0.3-8.6-0.6-17.3-0.8-25.9c0-0.1,0-0.3-0.1-0.4c3.5-3.2,6.8-6.6,9.9-10.2 c0.7,12,1.4,24.1,2,36.1c-0.1,0.1-0.1,0.2-0.1,0.4h-1.1L75.2,93.8L75.2,93.8z M90.6,72.9c-0.2,3-0.2,5.5-0.2,7.6 c0,3.3,0.1,5.7,0.1,7.4c0,0.9,0,1.8-0.3,2.6c-0.2,0.6-0.5,1.2-1,1.6c-0.4,0.4-0.8,0.7-1.2,0.9c-0.9,0.4-1.8,0.6-2.8,0.7 c-1.3,0.1-2.9,0.2-5.1,0.2h-0.6l-2.2-39.6c0.2-0.3,0.4-0.5,0.6-0.8l0,0l0,0c0.7-0.8,1.7-1.3,2.8-1.3c0.5,0,1.1,0.1,1.6,0.4 c1,0.5,2.1,1,3.3,1.6c1.9,0.9,2.9,1.3,3.4,1.6c0.3,0.1,0.4,0.2,0.5,0.2c0.1,0,0.1,0.1,0.2,0.1c0.6,0.5,1.1,1.2,1.3,1.9 c0.3,1.1,0.4,2.3,0.4,3.4C91.4,64.2,90.9,68.1,90.6,72.9L90.6,72.9z"></path>
            </g>
        </g>
    </g>
</svg>