<svg version="1.1" id="Layer_1"
    xmlns="http://www.w3.org/2000/svg"
    xmlns:xlink="http://www.w3.org/1999/xlink" viewBox="0 0 505 505" xml:space="preserve" width="64px" height="64px" fill="#000000">
    <g id="SVGRepo_bgCarrier" stroke-width="0"></g>
    <g id="SVGRepo_tracerCarrier" stroke-linecap="round" stroke-linejoin="round"></g>
    <g id="SVGRepo_iconCarrier">
        <circle style="fill:#84DBFF;" cx="252.5" cy="252.5" r="252.5"></circle>
        <g>
            <path style="fill:#FF7058;" d="M438.7,294.9h9.6c0.5,0,0.9-0.4,0.9-0.9v-21.5c0-0.5-0.4-0.9-0.9-0.9h-9.6V294.9z"></path>
            <path style="fill:#FF7058;" d="M311.8,304.6H78.6V130c0-2.2,1.8-4,4-4h225.3c2.2,0,4,1.8,4,4v174.6H311.8z"></path>
        </g>
        <path style="fill:#324A5E;" d="M435.9,346H83.4c-2.7,0-4.9-2.2-4.9-4.9v-36.5h362.2v36.5C440.8,343.8,438.6,346,435.9,346z"></path>
        <path style="fill:#FFFFFF;" d="M394.1,165.9h-82.2v138.7h128.9v-52.8c0-2.1-0.4-4.2-1.3-6.1l-31.7-70.9 C405.3,169.4,400,165.9,394.1,165.9z"></path>
        <path style="fill:#54C0EB;" d="M424.8,231.2l-23.9-53.4c-1.2-2.7-3.9-4.5-6.9-4.5h-74.8v71.2h97 C423.1,244.5,427.6,237.4,424.8,231.2z"></path>
        <rect x="319.3" y="251.3" style="fill:#ACB3BA;" width="33" height="8"></rect>
        <path style="fill:#2B3B4E;" d="M376.3,317.3L376.3,317.3c-21.6,0-39.1,17.5-39.1,39.1l0,0c0,21.6,17.5,39.1,39.1,39.1l0,0 c21.6,0,39.1-17.5,39.1-39.1l0,0C415.4,334.8,397.9,317.3,376.3,317.3z"></path>
        <path style="fill:#E6E9EE;" d="M376.3,335.1L376.3,335.1c-11.8,0-21.3,9.5-21.3,21.3l0,0c0,11.8,9.5,21.3,21.3,21.3l0,0 c11.8,0,21.3-9.5,21.3-21.3l0,0C397.6,344.7,388.1,335.1,376.3,335.1z"></path>
        <path style="fill:#2B3B4E;" d="M149.7,317.3L149.7,317.3c-21.6,0-39.1,17.5-39.1,39.1l0,0c0,21.6,17.5,39.1,39.1,39.1l0,0 c21.6,0,39.1-17.5,39.1-39.1l0,0C188.8,334.8,171.3,317.3,149.7,317.3z"></path>
        <path style="fill:#E6E9EE;" d="M149.7,335.1L149.7,335.1c-11.8,0-21.3,9.5-21.3,21.3l0,0c0,11.8,9.5,21.3,21.3,21.3l0,0 c11.8,0,21.3-9.5,21.3-21.3l0,0C171,344.7,161.4,335.1,149.7,335.1z"></path>
        <g>
            <path style="fill:#FFFFFF;" d="M149.7,194l-3.6,8.3h-19.7l-3.9,9.2h18.8l-3.6,8.3h-18.8l-7.1,16.7h-9.5l18.2-42.6h29.2V194z"></path>
            <path style="fill:#FFFFFF;" d="M186.2,208.1c-2.9,6.8-7.5,11.2-13.8,13.2l4.3,15.2H165l-3.6-13.6h-6.6l-5.8,13.6h-9.5l18.2-42.6 h16.1c6.6,0,10.9,1.1,12.7,3.4C188.5,199.6,188.3,203.2,186.2,208.1z M172.6,213.2c1.6-1.1,2.9-2.7,3.9-5s1-3.9,0.2-4.7 c-0.9-0.9-2.8-1.3-5.9-1.3h-7.1l-5.4,12.6h6.9C168.5,214.8,171,214.3,172.6,213.2z"></path>
            <path style="fill:#FFFFFF;" d="M232.7,194l-3.6,8.5h-21.2l-3.8,8.8h19.1l-3.5,8.1h-19.1l-3.8,8.8h21.9l-3.6,8.4h-31.4l18.2-42.6 H232.7z"></path>
            <path style="fill:#FFFFFF;" d="M272.6,194l-3.6,8.5h-21.2l-3.8,8.8h19.1l-3.5,8.1h-19.1l-3.8,8.8h21.9l-3.6,8.4h-31.4l18.2-42.6 H272.6z"></path>
        </g>
    </g>
</svg>