<svg height="20px" width="20px" version="1.1" id="Layer_1"
    xmlns="http://www.w3.org/2000/svg"
    xmlns:xlink="http://www.w3.org/1999/xlink" viewBox="0 0 512 512" xml:space="preserve" fill="#000000">
    <g id="SVGRepo_bgCarrier" stroke-width="0"></g>
    <g id="SVGRepo_tracerCarrier" stroke-linecap="round" stroke-linejoin="round"></g>
    <g id="SVGRepo_iconCarrier">
        <circle style="fill:#88C5CC;" cx="256" cy="256" r="256"></circle>
        <path style="fill:#406A80;" d="M256,512c136.764,0,248.476-107.256,255.624-242.252L484,248l-96,68l-156-64l-96,88L7.404,317.14 C34.824,428.992,135.696,512,256,512z"></path>
        <g>
            <path style="fill:#F5F5F5;" d="M490.528,243.376c-2.552-3.604-7.544-4.464-11.152-1.904l-92.408,65.456L235.04,244.596 c-2.872-1.18-6.16-0.592-8.444,1.504l-93.084,85.328L5.452,308.66c1.2,5.752,2.644,11.404,4.228,17.004l124.924,22.208 c0.468,0.084,0.936,0.124,1.4,0.124c1.984,0,3.916-0.74,5.408-2.104l92.256-84.568l151.3,62.076 c2.532,1.032,5.416,0.712,7.664-0.876l96-68C492.232,251.976,493.084,246.98,490.528,243.376z"></path>
            <circle style="fill:#F5F5F5;" cx="388" cy="316" r="16"></circle>
        </g>
        <path style="fill:#CC584C;" d="M388,300c8.84,0,16,7.16,16,16s-7.16,16-16,16s-16-7.16-16-16S379.16,300,388,300 M388,292 c-13.236,0-24,10.764-24,24s10.764,24,24,24s24-10.764,24-24S401.236,292,388,292L388,292z"></path>
        <circle style="fill:#F5F5F5;" cx="484" cy="248" r="16"></circle>
        <path style="fill:#CC584C;" d="M484,232c8.84,0,16,7.16,16,16s-7.16,16-16,16s-16-7.16-16-16S475.16,232,484,232 M484,224 c-13.236,0-24,10.764-24,24s10.764,24,24,24s24-10.764,24-24S497.236,224,484,224L484,224z"></path>
        <circle style="fill:#F5F5F5;" cx="232" cy="252" r="16"></circle>
        <path style="fill:#CC584C;" d="M232,236c8.84,0,16,7.16,16,16s-7.16,16-16,16s-16-7.16-16-16S223.16,236,232,236 M232,228 c-13.236,0-24,10.764-24,24s10.764,24,24,24s24-10.764,24-24S245.236,228,232,228L232,228z"></path>
        <circle style="fill:#F5F5F5;" cx="136" cy="340" r="16"></circle>
        <path style="fill:#CC584C;" d="M136,324c8.84,0,16,7.16,16,16s-7.16,16-16,16s-16-7.16-16-16S127.16,324,136,324 M136,316 c-13.236,0-24,10.764-24,24s10.764,24,24,24s24-10.764,24-24S149.236,316,136,316L136,316z"></path>
    </g>
</svg>