<svg width="64px" height="64px" viewBox="0 0 64 64"
    xmlns="http://www.w3.org/2000/svg" fill="#000000">
    <g id="SVGRepo_bgCarrier" stroke-width="0"></g>
    <g id="SVGRepo_tracerCarrier" stroke-linecap="round" stroke-linejoin="round"></g>
    <g id="SVGRepo_iconCarrier">
        <defs>
            <style>.cls-1{fill:#414042;}.cls-2{fill:#231f20;}.cls-3{fill:#fff200;}.cls-4{fill:#ffbe00;}</style>
        </defs>
        <title></title>
        <g id="cashier">
            <path class="cls-1" d="M57.81,40.35,56,25.94a.53.53,0,0,1,0-.13V16a4.93,4.93,0,0,0-1-3c.19-.25-1.33,1-2.67,1H33.69a3.7,3.7,0,0,1-3.63-3H13a5,5,0,0,0-5,5v9.82a.53.53,0,0,1,0,.13L6.19,40.35A5,5,0,0,0,3,45V55a5,5,0,0,0,5,5H56a5,5,0,0,0,5-5V45A5,5,0,0,0,57.81,40.35ZM57,55a1,1,0,0,1-1,1H8a1,1,0,0,1-1-1V45a1,1,0,0,1,1-1H56a1,1,0,0,1,1,1Z"></path>
            <path class="cls-2" d="M57.81,40.35,56,25.94a.53.53,0,0,1,0-.13V16a4.93,4.93,0,0,0-1-3c.19-.25-1.33,1-2.67,1H33.69a3.7,3.7,0,0,1-3.63-3h0a5.47,5.47,0,0,1-.1-1V60H56a5,5,0,0,0,5-5V45A5,5,0,0,0,57.81,40.35Z"></path>
            <rect class="cls-3" height="21" rx="3.69" width="58" x="3" y="40"></rect>
            <path class="cls-4" d="M56,6.69V10a4.84,4.84,0,0,1-.53,2.21A3.68,3.68,0,0,1,52.31,14H33.69a3.7,3.7,0,0,1-3.63-3h0a5.47,5.47,0,0,1-.1-1V6.69A3.69,3.69,0,0,1,33.69,3H52.31A3.69,3.69,0,0,1,56,6.69Z"></path>
            <path class="cls-4" d="M30,10a5.47,5.47,0,0,0,.1,1h0a3.85,3.85,0,0,1-.06-.69Z"></path>
            <path class="cls-4" d="M56,10v.31a3.59,3.59,0,0,1-.53,1.9A4.84,4.84,0,0,0,56,10Z"></path>
            <path class="cls-4" d="M61,43.69V57.31A3.69,3.69,0,0,1,57.31,61H30V40H57.31A3.69,3.69,0,0,1,61,43.69Z"></path>
            <rect class="cls-4" height="11" rx="2" width="26" x="30" y="3"></rect>
            <path class="cls-1" d="M36,51a2,2,0,0,1-2,2H26a2,2,0,0,1,0-4h8A2,2,0,0,1,36,51Z"></path>
            <path class="cls-2" d="M36,51a2,2,0,0,1-2,2H30V49h4A2,2,0,0,1,36,51Z"></path>
            <path class="cls-4" d="M46,27a2,2,0,1,1-2,2A2,2,0,0,1,46,27Zm0,6a2,2,0,1,1-2,2A2,2,0,0,1,46,33Zm-7-6a2,2,0,1,1-2,2A2,2,0,0,1,39,27Zm0,6a2,2,0,1,1-2,2A2,2,0,0,1,39,33Zm-7-2a2,2,0,1,1,2-2A2,2,0,0,1,32,31Zm2,4a2,2,0,1,1-2-2A2,2,0,0,1,34,35Z"></path>
            <path class="cls-3" d="M18,19H32a2,2,0,0,1,0,4H18a2,2,0,0,1,0-4Z"></path>
        </g>
    </g>
</svg>