<svg fill="#000000" width="30px" height="30px" viewBox="0 0 24 24" id="filter-alt" data-name="Line Color"
    xmlns="http://www.w3.org/2000/svg" class="icon line-color">
    <g id="SVGRepo_bgCarrier" stroke-width="0"></g>
    <g id="SVGRepo_tracerCarrier" stroke-linecap="round" stroke-linejoin="round"></g>
    <g id="SVGRepo_iconCarrier">
        <path id="primary" d="M5,3V17M12,7V21m7-7v7m0-11V3" style="fill: none; stroke: #000000; stroke-linecap: round; stroke-linejoin: round; stroke-width: 2;"></path>
        <path id="secondary" d="M5,17a2,2,0,1,0,2,2A2,2,0,0,0,5,17ZM12,3a2,2,0,1,0,2,2A2,2,0,0,0,12,3Zm7,7a2,2,0,1,0,2,2A2,2,0,0,0,19,10Z" style="fill: none; stroke: #2ca9bc; stroke-linecap: round; stroke-linejoin: round; stroke-width: 2;"></path>
    </g>
</svg>