<svg width="20px" height="20px" viewBox="0 0 1024 1024" class="icon" version="1.1"
    xmlns="http://www.w3.org/2000/svg">
    <path d="M646.4 275.2L512 409.6l-177.066667-177.066667-59.733333 59.733334L512 529.066667l194.133333-194.133334z" fill="#F44336" />
    <path d="M768 405.333333l-192-192h192z" fill="#F44336" />
    <path d="M949.333333 657.066667l-51.2-51.2c-181.333333-177.066667-616.533333-151.466667-772.266666 0l-51.2 51.2c-14.933333 14.933333-14.933333 36.266667 0 51.2l102.4 100.266666c14.933333 14.933333 36.266667 14.933333 51.2 0l113.066666-108.8-8.533333-119.466666c36.266667-36.266667 322.133333-36.266667 358.4 0l-6.4 123.733333 108.8 104.533333c14.933333 14.933333 36.266667 14.933333 51.2 0l102.4-100.266666c17.066667-14.933333 17.066667-38.4 2.133333-51.2z" fill="#009688" />
</svg>