<svg fill="#000000" width="18px" height="18px" viewBox="0 0 42 42"
    xmlns="http://www.w3.org/2000/svg">
    <g id="SVGRepo_bgCarrier" stroke-width="0"></g>
    <g id="SVGRepo_tracerCarrier" stroke-linecap="round" stroke-linejoin="round"></g>
    <g id="SVGRepo_iconCarrier">
        <path id="_47.Explore" data-name="47.Explore" d="M24,45A21,21,0,1,1,45,24,21,21,0,0,1,24,45ZM24,5A19,19,0,1,0,43,24,19,19,0,0,0,24,5ZM40,25H39a1,1,0,0,1,0-2h1a1,1,0,0,1,0,2Zm-6.021,8.2a.944.944,0,0,1-.261.514.974.974,0,0,1-1.129.172l.058.059.008.008h0c-.162-.067-.306-.13-.464-.195a61.94,61.94,0,0,1-9.867-4.938,11.294,11.294,0,0,1-1.794-1.353c-.045-.043-2.488-2.412-6.485-12.125h0l.067.067c-.01-.02-.012-.042-.02-.062a.965.965,0,0,1-.038-.661.932.932,0,0,1,.229-.407.967.967,0,0,1,1.1-.181.231.231,0,0,1,.028.01l-.023-.025-.043-.042h0c9.713,4,12.082,6.44,12.125,6.485s2.488,2.413,6.485,12.125h0l-.044-.044-.023-.022a1.084,1.084,0,0,1,.048.146A.986.986,0,0,1,33.979,33.2ZM26.046,21.933c-.021-.021-2.016-1.927-9.187-5.073,3.146,7.171,5.055,9.167,5.095,9.208.021.021,2.016,1.928,9.187,5.073C28,23.969,26.086,21.974,26.046,21.933ZM24,23a1,1,0,1,1-1,1A1,1,0,0,1,24,23Zm0-13a1,1,0,0,1-1-1V8a1,1,0,0,1,2,0V9A1,1,0,0,1,24,10Zm0,28a1,1,0,0,1,1,1v1a1,1,0,0,1-2,0V39A1,1,0,0,1,24,38ZM9,25H8a1,1,0,0,1,0-2H9a1,1,0,0,1,0,2Z" transform="translate(-3 -3)" fill-rule="evenodd"></path>
    </g>
</svg>