<svg width="20px" height="20px" viewBox="0 0 1024 1024"
    xmlns="http://www.w3.org/2000/svg" fill="#000000">
    <g id="SVGRepo_bgCarrier" stroke-width="0"></g>
    <g id="SVGRepo_tracerCarrier" stroke-linecap="round" stroke-linejoin="round"></g>
    <g id="SVGRepo_iconCarrier">
        <path fill="#000000" d="M224 318.336V896h576V318.336L552.512 115.84a64 64 0 0 0-81.024 0L224 318.336zM593.024 66.304l259.2 212.096A32 32 0 0 1 864 303.168V928a32 32 0 0 1-32 32H192a32 32 0 0 1-32-32V303.168a32 32 0 0 1 11.712-24.768l259.2-212.096a128 128 0 0 1 162.112 0z"></path>
        <path fill="#000000" d="M512 448a64 64 0 1 0 0-128 64 64 0 0 0 0 128zm0 64a128 128 0 1 1 0-256 128 128 0 0 1 0 256z"></path>
    </g>
</svg>